<svg width="57" height="47" viewBox="0 0 57 47" fill="none" xmlns="http://www.w3.org/2000/svg">
<path d="M39.0516 11.3271C38.6123 9.2162 36.5607 7.03827 34.4685 6.46224C33.4228 6.17403 32.5642 6.34376 32.0241 6.84372L31.4571 7.37922C30.9149 7.88169 30.6896 8.72039 30.9115 9.77496C31.351 11.8853 33.4027 14.0632 35.4941 14.6396C36.5392 14.9276 37.3977 14.7579 37.9381 14.2593L37.9391 14.2564L38.506 13.7209C39.0469 13.2186 39.2712 12.3809 39.0516 11.3271Z" fill="#D1ADFF" stroke="black" stroke-width="0.2" stroke-linecap="round" stroke-linejoin="round"/>
<path d="M31.7334 10.0786C31.6236 9.80721 31.5381 9.52667 31.4777 9.24022C31.0382 7.12988 32.3777 5.88632 34.4686 6.46256C36.5594 7.03879 38.6125 9.21658 39.0518 11.3275C39.2714 12.3813 39.0471 13.2191 38.5062 13.7233C38.0434 14.1524 37.3497 14.3364 36.5057 14.2011C36.3562 14.1767 36.2081 14.1442 36.0621 14.1036C35.7467 14.0153 35.4405 13.8972 35.1477 13.7509C34.5809 13.4659 34.0564 13.1041 33.5889 12.6759C33.4106 12.5147 33.2399 12.3444 33.0773 12.1672C32.7108 11.7689 32.3892 11.3316 32.1181 10.8633" stroke="black" stroke-width="0.2" stroke-linecap="round" stroke-linejoin="round"/>
<path d="M34.4575 6.55053C32.4202 5.98957 31.1185 7.20124 31.5435 9.25649C31.6023 9.53565 31.6858 9.80903 31.7929 10.0734C31.7929 10.0734 32.0747 10.6531 32.218 10.8915C32.4867 11.3445 32.7998 11.7697 33.1527 12.1609C33.3098 12.3339 33.476 12.4992 33.6511 12.6567C34.1071 13.0742 34.6186 13.4268 35.1713 13.7047C35.4567 13.8475 35.7552 13.9627 36.0628 14.0486C36.2048 14.0879 36.3489 14.1195 36.4944 14.1433C37.3171 14.2748 37.9947 14.0963 38.4435 13.6781" stroke="#E0F9FF" stroke-width="0.2" stroke-linecap="round" stroke-linejoin="round"/>
<path d="M35.9659 13.3099C34.3121 12.8141 32.6555 11.057 32.2693 9.38578C31.8832 7.7146 32.9079 6.76313 34.5631 7.25681C36.2182 7.7505 37.8734 9.50975 38.2607 11.1813C38.4535 12.0188 38.2942 12.6745 37.8804 13.0574C37.463 13.4436 36.7958 13.5585 35.9659 13.3099Z" stroke="black" stroke-width="0.2" stroke-linecap="round" stroke-linejoin="round"/>
<path d="M37.6751 13.1356C38.0806 12.7583 38.2368 12.1176 38.0475 11.3006C37.6686 9.66531 36.0495 7.94638 34.4301 7.46138C33.4057 7.15383 32.6283 7.41632 32.2914 8.06455C32.5756 7.26348 33.419 6.91404 34.5632 7.25696C36.2182 7.75318 37.8737 9.50998 38.261 11.1816C38.3073 11.3756 38.3342 11.5736 38.3415 11.7729C38.3587 12.3276 38.1913 12.7687 37.8807 13.0578C37.723 13.2008 37.5345 13.3059 37.3297 13.3647C37.4567 13.3073 37.5736 13.2298 37.6759 13.1352L37.6751 13.1356Z" fill="black" stroke="black" stroke-width="0.2" stroke-linecap="round" stroke-linejoin="round"/>
<path fill-rule="evenodd" clip-rule="evenodd" d="M33.9241 10.8069L35.505 11.5757L35.8251 12.6491L33.9241 10.8069Z" fill="white"/>
<path fill-rule="evenodd" clip-rule="evenodd" d="M36.6153 10.8488L35.4862 11.5939L35.7957 12.6318L36.6153 10.8488Z" fill="white"/>
<path fill-rule="evenodd" clip-rule="evenodd" d="M33.8042 10.5476L35.3819 11.3063L34.9748 9.94124L33.8042 10.5476Z" fill="white"/>
<path fill-rule="evenodd" clip-rule="evenodd" d="M36.4897 10.5348L35.3654 11.2952L34.9583 9.93018L36.4897 10.5348Z" fill="white"/>
<path fill-rule="evenodd" clip-rule="evenodd" d="M33.8892 10.4887L35.0586 9.87737L34.5891 8.3033L33.8892 10.4887Z" fill="white"/>
<path fill-rule="evenodd" clip-rule="evenodd" d="M36.5191 10.5306L34.9859 9.92112L34.5165 8.34705L36.5191 10.5306Z" fill="white"/>
<path d="M34.552 8.29643C34.5788 8.29642 34.6078 8.31014 34.6281 8.33234L36.5773 10.4552C36.5914 10.4707 36.5999 10.4884 36.6021 10.5053C36.6033 10.5081 36.6046 10.5111 36.6056 10.514C36.6152 10.5414 36.6084 10.5672 36.5879 10.5811L35.4944 11.327C35.4745 11.3406 35.4451 11.3407 35.4173 11.3271L33.8792 10.5829C33.8506 10.569 33.8285 10.5433 33.8217 10.5159C33.8208 10.5129 33.8203 10.51 33.82 10.5072C33.8121 10.4902 33.8098 10.4725 33.8148 10.4571L34.4973 8.33243C34.5044 8.31021 34.5252 8.29645 34.552 8.29643ZM34.0649 10.5266L35.4114 11.1782L36.3689 10.525L35.0618 10.0058L34.0649 10.5266ZM36.2798 10.3249L34.6168 8.51353L34.0345 10.3264L34.9781 9.83382C34.9958 9.82451 35.0195 9.8245 35.0427 9.83378L36.2798 10.3249ZM33.9035 10.7216C33.9204 10.6963 33.9586 10.691 33.9947 10.7088L35.4925 11.4499L36.5477 10.7071C36.5732 10.6892 36.6143 10.6945 36.6464 10.7198C36.6786 10.7451 36.693 10.7836 36.6809 10.8122L35.9114 12.6444C35.9031 12.6643 35.8832 12.6761 35.8582 12.6761C35.8331 12.6762 35.8061 12.6644 35.786 12.6445L33.924 10.814C33.8951 10.7855 33.8865 10.747 33.9035 10.7216ZM34.3112 11.0121L35.7977 12.4733L36.412 11.0107L35.5763 11.599C35.5563 11.6132 35.5261 11.6132 35.4976 11.5991L34.3112 11.0121Z" fill="#2A2A2A"/>
<path d="M34.552 8.29643C34.5788 8.29642 34.6078 8.31014 34.6281 8.33234L36.5773 10.4552C36.5914 10.4707 36.5999 10.4884 36.6021 10.5053C36.6033 10.5081 36.6046 10.5111 36.6056 10.514C36.6152 10.5414 36.6084 10.5672 36.5879 10.5811L35.4944 11.327C35.4745 11.3406 35.4451 11.3407 35.4173 11.3271L33.8792 10.5829C33.8506 10.569 33.8285 10.5433 33.8217 10.5159C33.8208 10.5129 33.8203 10.51 33.82 10.5072C33.8121 10.4902 33.8098 10.4725 33.8148 10.4571L34.4973 8.33243C34.5044 8.31021 34.5252 8.29645 34.552 8.29643ZM34.0649 10.5266L35.4114 11.1782L36.3689 10.525L35.0618 10.0058L34.0649 10.5266ZM36.2798 10.3249L34.6168 8.51353L34.0345 10.3264L34.9781 9.83382C34.9958 9.82451 35.0195 9.8245 35.0427 9.83378L36.2798 10.3249ZM33.9035 10.7216C33.9204 10.6963 33.9586 10.691 33.9947 10.7088L35.4925 11.4499L36.5477 10.7071C36.5732 10.6892 36.6143 10.6945 36.6464 10.7198C36.6786 10.7451 36.693 10.7836 36.6809 10.8122L35.9114 12.6444C35.9031 12.6643 35.8832 12.6761 35.8582 12.6761C35.8331 12.6762 35.8061 12.6644 35.786 12.6445L33.924 10.814C33.8951 10.7855 33.8865 10.747 33.9035 10.7216ZM34.3112 11.0121L35.7977 12.4733L36.412 11.0107L35.5763 11.599C35.5563 11.6132 35.5261 11.6132 35.4976 11.5991L34.3112 11.0121Z" stroke="white"/>
<path d="M12.4854 10.3363C10.9488 9.45949 8.49587 9.53118 7.0061 10.4966C6.26131 10.979 5.89971 11.5954 5.91401 12.1966L5.93564 12.8334C5.95033 13.4372 6.34387 14.0297 7.11284 14.4663C8.64919 15.3426 11.1021 15.2709 12.5917 14.3062C13.3361 13.8241 13.6977 13.2076 13.6843 12.6071L13.6831 12.6049L13.6614 11.9681C13.6461 11.3652 13.2526 10.7738 12.4854 10.3363Z" fill="#78A7FF" stroke="black" stroke-width="0.2" stroke-linecap="round" stroke-linejoin="round"/>
<path d="M7.74545 14.1288C7.51898 14.0486 7.30001 13.9487 7.09107 13.8302C5.55469 12.9539 5.51697 11.4611 7.00614 10.4966C8.49532 9.53206 10.9489 9.45944 12.4855 10.3362C13.2528 10.7738 13.6463 11.3652 13.6628 11.9692C13.6754 12.4846 13.4122 13.0081 12.8709 13.4502C12.7747 13.5283 12.6743 13.6012 12.5701 13.6683C12.3447 13.813 12.1059 13.936 11.857 14.0354C11.3741 14.227 10.8669 14.3512 10.3498 14.4044C10.1539 14.4259 9.95656 14.4378 9.75935 14.441C9.31544 14.4487 8.87197 14.408 8.43683 14.3195" stroke="black" stroke-width="0.2" stroke-linecap="round" stroke-linejoin="round"/>
<path d="M7.05482 10.5508C5.60414 11.4909 5.64278 12.9433 7.13744 13.7986C7.34102 13.9141 7.55443 14.0114 7.77518 14.0894C7.77518 14.0894 8.28463 14.2317 8.50905 14.2736C8.93345 14.3552 9.36487 14.3946 9.79697 14.3912C9.98863 14.3891 10.1804 14.3773 10.3724 14.3558C10.8766 14.3038 11.3711 14.1826 11.842 13.9958C12.0847 13.8989 12.3175 13.779 12.5373 13.6378C12.6386 13.5724 12.7362 13.5015 12.8298 13.4255C13.3572 12.9944 13.6152 12.4837 13.6016 11.9827" stroke="#E0F9FF" stroke-width="0.2" stroke-linecap="round" stroke-linejoin="round"/>
<path d="M12.0301 13.2965C10.8276 14.0377 8.84787 14.0963 7.61055 13.4256C6.37322 12.7549 6.34424 11.6129 7.54617 10.8697C8.74809 10.1266 10.7284 10.0699 11.9666 10.7401C12.5862 11.0767 12.903 11.5297 12.9139 11.9901C12.9248 12.4546 12.6334 12.9245 12.0301 13.2965Z" stroke="black" stroke-width="0.2" stroke-linecap="round" stroke-linejoin="round"/>
<path d="M12.8504 12.158C12.8384 11.7056 12.5292 11.2626 11.924 10.9351C10.7127 10.2794 8.77688 10.3359 7.59971 11.0619C6.85458 11.5208 6.59407 12.1381 6.80986 12.6955C6.47151 12.0873 6.71435 11.3826 7.54626 10.8697C8.74965 10.128 10.7285 10.0699 11.9667 10.7401C12.1111 10.8171 12.2475 10.908 12.374 11.0117C12.7245 11.3022 12.9049 11.6437 12.9141 11.9902C12.9165 12.1641 12.8788 12.3362 12.8039 12.4932C12.8375 12.3845 12.8533 12.2711 12.8506 12.1573L12.8504 12.158Z" fill="black" stroke="black" stroke-width="0.2" stroke-linecap="round" stroke-linejoin="round"/>
<path fill-rule="evenodd" clip-rule="evenodd" d="M9.38171 13.1851L10.7123 12.6379L11.5466 13.025L9.38171 13.1851Z" fill="white"/>
<path fill-rule="evenodd" clip-rule="evenodd" d="M10.8677 11.5648L10.7139 12.6578L11.5206 13.0321L10.8677 11.5648Z" fill="white"/>
<path fill-rule="evenodd" clip-rule="evenodd" d="M9.15871 13.1181L10.4816 12.5672L9.42038 12.0748L9.15871 13.1181Z" fill="white"/>
<path fill-rule="evenodd" clip-rule="evenodd" d="M10.6072 11.4715L10.4654 12.5702L9.40417 12.0778L10.6072 11.4715Z" fill="white"/>
<path fill-rule="evenodd" clip-rule="evenodd" d="M9.16949 13.0341L9.42742 11.9893L8.20412 11.4216L9.16949 13.0341Z" fill="white"/>
<path fill-rule="evenodd" clip-rule="evenodd" d="M10.6218 11.4515L9.41519 12.0559L8.19189 11.4883L10.6218 11.4515Z" fill="white"/>
<path d="M8.17898 11.4397C8.19352 11.4233 8.21768 11.4131 8.24237 11.4127L10.606 11.3756C10.6232 11.3754 10.6387 11.3798 10.6503 11.3877C10.6527 11.3884 10.6552 11.3893 10.6575 11.3902C10.6796 11.3993 10.6917 11.4174 10.6892 11.4374L10.5553 12.5089C10.5528 12.5284 10.5369 12.5464 10.5134 12.556L9.22129 13.0903C9.19723 13.1002 9.16938 13.0998 9.14882 13.089C9.14652 13.088 9.14445 13.0866 9.14255 13.0853C9.12781 13.081 9.11573 13.0727 9.10888 13.0613L8.17147 11.4926C8.16164 11.4762 8.16444 11.4561 8.17898 11.4397ZM9.2873 12.9465L10.4186 12.4788L10.536 11.5406L9.50749 12.0561L9.2873 12.9465ZM10.3644 11.4864L8.34771 11.518L9.14767 12.8564L9.35626 12.0138C9.36011 11.998 9.37295 11.9835 9.39125 11.9744L10.3644 11.4864ZM9.3198 13.1508C9.31341 13.1266 9.33083 13.1005 9.36141 13.0881L10.6298 12.5767L10.7449 11.5303C10.7478 11.505 10.7733 11.4828 10.8063 11.477C10.8394 11.4711 10.8708 11.4832 10.8819 11.506L11.5922 12.9692C11.5999 12.9851 11.5964 13.0036 11.5828 13.0189C11.5692 13.0342 11.5474 13.0443 11.5242 13.0457L9.38782 13.1883C9.35455 13.1905 9.3262 13.1749 9.3198 13.1508ZM9.71973 13.0597L11.4252 12.9457L10.8582 11.7777L10.767 12.6065C10.7649 12.6264 10.7485 12.6448 10.7244 12.6545L9.71973 13.0597Z" fill="#2A2A2A"/>
<path d="M8.17898 11.4397C8.19352 11.4233 8.21768 11.4131 8.24237 11.4127L10.606 11.3756C10.6232 11.3754 10.6387 11.3798 10.6503 11.3877C10.6527 11.3884 10.6552 11.3893 10.6575 11.3902C10.6796 11.3993 10.6917 11.4174 10.6892 11.4374L10.5553 12.5089C10.5528 12.5284 10.5369 12.5464 10.5134 12.556L9.22129 13.0903C9.19723 13.1002 9.16938 13.0998 9.14882 13.089C9.14652 13.088 9.14445 13.0866 9.14255 13.0853C9.12781 13.081 9.11573 13.0727 9.10888 13.0613L8.17147 11.4926C8.16164 11.4762 8.16444 11.4561 8.17898 11.4397ZM9.2873 12.9465L10.4186 12.4788L10.536 11.5406L9.50749 12.0561L9.2873 12.9465ZM10.3644 11.4864L8.34771 11.518L9.14767 12.8564L9.35626 12.0138C9.36011 11.998 9.37295 11.9835 9.39125 11.9744L10.3644 11.4864ZM9.3198 13.1508C9.31341 13.1266 9.33083 13.1005 9.36141 13.0881L10.6298 12.5767L10.7449 11.5303C10.7478 11.505 10.7733 11.4828 10.8063 11.477C10.8394 11.4711 10.8708 11.4832 10.8819 11.506L11.5922 12.9692C11.5999 12.9851 11.5964 13.0036 11.5828 13.0189C11.5692 13.0342 11.5474 13.0443 11.5242 13.0457L9.38782 13.1883C9.35455 13.1905 9.3262 13.1749 9.3198 13.1508ZM9.71973 13.0597L11.4252 12.9457L10.8582 11.7777L10.767 12.6065C10.7649 12.6264 10.7485 12.6448 10.7244 12.6545L9.71973 13.0597Z" stroke="white"/>
<path d="M27.6827 21.9131C28.71 21.8644 29.891 21.0648 30.3207 20.1269C30.5357 19.6582 30.5208 19.243 30.3263 18.9526L30.117 18.6469C29.9215 18.3553 29.5436 18.1872 29.0302 18.2127C28.0032 18.2615 26.8222 19.0611 26.3923 19.9986C26.1775 20.4671 26.1924 20.8822 26.3862 21.1727L26.3875 21.1733L26.5968 21.479C26.7923 21.77 27.1698 21.9375 27.6827 21.9131Z" fill="#FFEF5F" stroke="black" stroke-width="0.2" stroke-linecap="round" stroke-linejoin="round"/>
<path d="M28.8252 18.5758C28.9613 18.5446 29.0999 18.5253 29.2394 18.5184C30.2664 18.4695 30.7505 19.1901 30.3208 20.1273C29.891 21.0645 28.7101 21.8647 27.6828 21.9135C27.1699 21.9379 26.7924 21.7704 26.596 21.4792C26.429 21.2303 26.3949 20.8915 26.5225 20.5059C26.5453 20.4376 26.5719 20.3706 26.602 20.3052C26.6675 20.1639 26.7463 20.0292 26.8374 19.9028C27.0145 19.6584 27.2246 19.4394 27.4617 19.2522C27.5511 19.1806 27.6442 19.1133 27.7399 19.0502C27.9553 18.9081 28.1855 18.7899 28.4266 18.6977" stroke="black" stroke-width="0.2" stroke-linecap="round" stroke-linejoin="round"/>
<path d="M30.2802 20.1156C30.6987 19.2024 30.2268 18.5019 29.2268 18.5481C29.0909 18.5548 28.9558 18.5736 28.8232 18.6041C28.8232 18.6041 28.5289 18.693 28.4057 18.7425C28.1721 18.8347 27.9481 18.9498 27.7372 19.0861C27.6438 19.1468 27.5534 19.2124 27.466 19.2828C27.2349 19.4654 27.03 19.679 26.8573 19.9173C26.7685 20.0405 26.6916 20.1719 26.6279 20.3097C26.5986 20.3733 26.5728 20.4385 26.5506 20.5049C26.4264 20.8808 26.4591 21.2117 26.622 21.4533" stroke="#E0F9FF" stroke-width="0.2" stroke-linecap="round" stroke-linejoin="round"/>
<path d="M26.983 20.319C27.3417 19.5807 28.2946 18.935 29.1107 18.8785C29.9269 18.8219 30.2973 19.3731 29.9395 20.1123C29.5816 20.8514 28.6279 21.4962 27.8114 21.5533C27.4025 21.5813 27.1058 21.4578 26.9568 21.2353C26.8066 21.0108 26.803 20.6895 26.983 20.319Z" stroke="black" stroke-width="0.2" stroke-linecap="round" stroke-linejoin="round"/>
<path d="M26.9357 21.1334C27.0827 21.3515 27.3725 21.4725 27.7715 21.4446C28.5702 21.3888 29.5022 20.7578 29.8532 20.0349C30.0756 19.5776 30.0109 19.1936 29.7312 18.9874C30.0868 19.1804 30.1875 19.6017 29.9393 20.1125C29.5803 20.8513 28.6278 21.4965 27.8114 21.5535C27.7165 21.5608 27.6213 21.5587 27.5269 21.5472C27.2644 21.514 27.0694 21.4026 26.9568 21.2355C26.9014 21.1509 26.8662 21.0548 26.854 20.9544C26.8714 21.0182 26.899 21.0788 26.9358 21.1338L26.9357 21.1334Z" fill="black" stroke="black" stroke-width="0.2" stroke-linecap="round" stroke-linejoin="round"/>
<path fill-rule="evenodd" clip-rule="evenodd" d="M27.9335 19.7224L27.9909 20.555L27.6232 20.9425L27.9335 19.7224Z" fill="white"/>
<path fill-rule="evenodd" clip-rule="evenodd" d="M28.5555 20.8381L27.9796 20.5519L27.6241 20.9265L28.5555 20.8381Z" fill="white"/>
<path fill-rule="evenodd" clip-rule="evenodd" d="M28.0117 19.612L28.0726 20.4411L28.5402 19.9483L28.0117 19.612Z" fill="white"/>
<path fill-rule="evenodd" clip-rule="evenodd" d="M28.6554 20.7122L28.0741 20.4316L28.5417 19.9388L28.6554 20.7122Z" fill="white"/>
<path fill-rule="evenodd" clip-rule="evenodd" d="M28.056 19.6332L28.5862 19.9677L29.1253 19.3997L28.056 19.6332Z" fill="white"/>
<path fill-rule="evenodd" clip-rule="evenodd" d="M28.664 20.7236L28.5521 19.9486L29.0912 19.3805L28.664 20.7236Z" fill="white"/>
<path d="M29.1201 19.3826C29.1264 19.3936 29.1276 19.4087 29.1233 19.4224L28.7085 20.729C28.7055 20.7385 28.7002 20.7462 28.6937 20.7511L28.691 20.7547C28.6819 20.7651 28.6696 20.7685 28.659 20.7634L28.0912 20.4921C28.0809 20.4872 28.0739 20.4751 28.0729 20.4604L28.0155 19.6513C28.0144 19.6363 28.0198 19.6211 28.0295 19.6117C28.0305 19.6107 28.0316 19.6098 28.0327 19.609C28.0378 19.6017 28.0446 19.5965 28.0522 19.5949L29.0922 19.3687C29.1031 19.3663 29.1137 19.3715 29.1201 19.3826ZM28.0828 19.7142L28.1331 20.4225L28.6302 20.6601L28.5346 19.9995L28.0828 19.7142ZM28.6918 20.5757L29.0457 19.4609L28.1583 19.654L28.5858 19.9241C28.5939 19.9291 28.5995 19.9388 28.6012 19.9506L28.6918 20.5757ZM27.9639 19.6944C27.9784 19.6953 27.9896 19.7097 27.9908 19.7288L28.04 20.5206L28.5974 20.7769C28.6108 20.7831 28.6184 20.8012 28.6156 20.8205C28.6128 20.8397 28.6003 20.8548 28.5856 20.8567L27.6458 20.9775C27.6355 20.9788 27.626 20.9734 27.62 20.9631C27.6141 20.9529 27.6125 20.939 27.616 20.926L27.9306 19.7248C27.9355 19.7061 27.9494 19.6934 27.9639 19.6944ZM27.9406 19.9311L27.6895 20.8899L28.4397 20.7936L27.9983 20.5906C27.9877 20.5857 27.9805 20.5734 27.9796 20.5583L27.9406 19.9311Z" fill="#2A2A2A"/>
<path d="M29.1201 19.3826C29.1264 19.3936 29.1276 19.4087 29.1233 19.4224L28.7085 20.729C28.7055 20.7385 28.7002 20.7462 28.6937 20.7511L28.691 20.7547C28.6819 20.7651 28.6696 20.7685 28.659 20.7634L28.0912 20.4921C28.0809 20.4872 28.0739 20.4751 28.0729 20.4604L28.0155 19.6513C28.0144 19.6363 28.0198 19.6211 28.0295 19.6117C28.0305 19.6107 28.0316 19.6098 28.0327 19.609C28.0378 19.6017 28.0446 19.5965 28.0522 19.5949L29.0922 19.3687C29.1031 19.3663 29.1137 19.3715 29.1201 19.3826ZM28.0828 19.7142L28.1331 20.4225L28.6302 20.6601L28.5346 19.9995L28.0828 19.7142ZM28.6918 20.5757L29.0457 19.4609L28.1583 19.654L28.5858 19.9241C28.5939 19.9291 28.5995 19.9388 28.6012 19.9506L28.6918 20.5757ZM27.9639 19.6944C27.9784 19.6953 27.9896 19.7097 27.9908 19.7288L28.04 20.5206L28.5974 20.7769C28.6108 20.7831 28.6184 20.8012 28.6156 20.8205C28.6128 20.8397 28.6003 20.8548 28.5856 20.8567L27.6458 20.9775C27.6355 20.9788 27.626 20.9734 27.62 20.9631C27.6141 20.9529 27.6125 20.939 27.616 20.926L27.9306 19.7248C27.9355 19.7061 27.9494 19.6934 27.9639 19.6944ZM27.9406 19.9311L27.6895 20.8899L28.4397 20.7936L27.9983 20.5906C27.9877 20.5857 27.9805 20.5734 27.9796 20.5583L27.9406 19.9311Z" stroke="white"/>
<path d="M15.9624 8.22236C16.0629 5.28605 18.313 1.88748 20.9887 0.630891C22.3261 0.00242692 23.5183 0.0321622 24.3595 0.578907L25.2449 1.16721C26.0895 1.71684 26.5864 2.7912 26.5329 4.2587C26.432 7.19427 24.182 10.5928 21.5073 11.8498C20.1707 12.4778 18.9785 12.4481 18.1374 11.9032L18.1354 11.8996L17.25 11.3113C16.4072 10.7616 15.9119 9.68828 15.9624 8.22236Z" fill="#00ED7B" stroke="black" stroke-width="0.2" stroke-linecap="round" stroke-linejoin="round"/>
<path d="M25.5 4.85599C25.5844 4.46617 25.6342 4.06965 25.649 3.67102C25.7499 0.735383 23.6629 -0.625452 20.9889 0.631108C18.315 1.88767 16.063 5.28637 15.9625 8.22273C15.912 9.68869 16.4073 10.762 17.2506 11.3143C17.9715 11.7837 18.9456 11.8707 20.0475 11.4941C20.2427 11.4269 20.434 11.349 20.6206 11.2608C21.0236 11.0695 21.4073 10.8402 21.7666 10.576C22.4616 10.0624 23.0821 9.4555 23.6105 8.7724C23.8125 8.51481 24.0023 8.24676 24.1795 7.97125C24.5793 7.35166 24.9098 6.69018 25.1653 5.99865" stroke="black" stroke-width="0.2" stroke-linecap="round" stroke-linejoin="round"/>
<path d="M21.0241 0.746808C23.6296 -0.476857 25.6584 0.849884 25.5641 3.7082C25.5499 4.09668 25.5013 4.48308 25.4187 4.8629C25.4187 4.8629 25.1746 5.70646 25.0375 6.05977C24.7818 6.73015 24.4599 7.37346 24.0767 7.98024C23.9058 8.24886 23.7211 8.50919 23.5224 8.76122C23.0069 9.42712 22.4018 10.0188 21.7241 10.5196C21.374 10.7773 20.9998 11.0008 20.6067 11.1872C20.4251 11.2728 20.239 11.3486 20.0491 11.414C18.9749 11.7805 18.0237 11.6973 17.3241 11.2392" stroke="#E0F9FF" stroke-width="0.2" stroke-linecap="round" stroke-linejoin="round"/>
<path d="M20.5655 10.1727C22.6712 9.12507 24.4883 6.38285 24.6194 4.04933C24.7505 1.71582 23.154 0.674577 21.0459 1.71968C18.9379 2.76479 17.1232 5.50956 16.9906 7.84386C16.9259 9.01301 17.2919 9.8569 17.9362 10.2756C18.5863 10.6979 19.5088 10.6981 20.5655 10.1727Z" stroke="black" stroke-width="0.2" stroke-linecap="round" stroke-linejoin="round"/>
<path d="M18.23 10.3332C17.5981 9.9201 17.2398 9.09571 17.3046 7.95482C17.4342 5.6712 19.2099 2.98894 21.2719 1.96376C22.5761 1.31424 23.6809 1.48729 24.2835 2.28006C23.7161 1.26987 22.5027 0.995281 21.0457 1.71997C18.9385 2.76843 17.1228 5.50995 16.9903 7.84431C16.9731 8.11545 16.9829 8.38765 17.0193 8.65695C17.1248 9.40593 17.4518 9.95969 17.9359 10.2761C18.1808 10.4319 18.4583 10.5294 18.7469 10.5612C18.563 10.5134 18.3881 10.4363 18.2288 10.3329L18.23 10.3332Z" fill="black" stroke="black" stroke-width="0.2" stroke-linecap="round" stroke-linejoin="round"/>
<path fill-rule="evenodd" clip-rule="evenodd" d="M22.7074 6.49719L20.6463 7.7178L20.3313 9.21254L22.7074 6.49719Z" fill="white"/>
<path fill-rule="evenodd" clip-rule="evenodd" d="M19.0578 6.85273L20.6744 7.74032L20.3699 9.18557L19.0578 6.85273Z" fill="white"/>
<path fill-rule="evenodd" clip-rule="evenodd" d="M22.8414 6.13297L20.7835 7.33977L21.184 5.43835L22.8414 6.13297Z" fill="white"/>
<path fill-rule="evenodd" clip-rule="evenodd" d="M19.1932 6.41358L20.8051 7.32281L21.2056 5.42139L19.1932 6.41358Z" fill="white"/>
<path fill-rule="evenodd" clip-rule="evenodd" d="M22.7192 6.06349L21.0628 5.36237L21.5246 3.17074L22.7192 6.06349Z" fill="white"/>
<path fill-rule="evenodd" clip-rule="evenodd" d="M19.1526 6.41231L21.1668 5.41367L21.6287 3.22205L19.1526 6.41231Z" fill="white"/>
<path d="M21.5743 3.15655C21.5378 3.1595 21.5 3.18136 21.4749 3.2138L19.0647 6.31566C19.0473 6.33824 19.0377 6.36322 19.0367 6.3865C19.0353 6.39044 19.0339 6.3946 19.0328 6.39874C19.023 6.43703 19.0351 6.47129 19.0644 6.48794L20.6327 7.38051C20.6612 7.39677 20.7012 7.39353 20.7375 7.37201L22.7432 6.18975C22.7805 6.1677 22.8077 6.13026 22.8139 6.09227C22.8148 6.08814 22.8151 6.08407 22.8152 6.08023C22.8241 6.05632 22.8251 6.03203 22.8167 6.01154L21.6526 3.1994C21.6405 3.16998 21.6107 3.15359 21.5743 3.15655ZM22.4848 6.1338L20.7288 7.16894L19.3555 6.38745L21.0728 5.53661L22.4848 6.1338ZM19.4543 6.10552L21.5106 3.45882L22.5036 5.85836L21.1672 5.29354C21.1421 5.28284 21.11 5.28545 21.0795 5.30064L19.4543 6.10552ZM22.7258 6.38099C22.6999 6.34841 22.6475 6.34545 22.6004 6.3737L20.6491 7.54727L19.1331 6.65474C19.0965 6.63328 19.0412 6.64496 19.0005 6.68294C18.9595 6.72094 18.9443 6.77486 18.9639 6.81234L20.2134 9.21743C20.227 9.24358 20.2553 9.25738 20.2893 9.25463C20.3233 9.25187 20.3587 9.23291 20.3837 9.20363L22.7081 6.50885C22.7443 6.46685 22.7516 6.41356 22.7258 6.38099ZM22.2044 6.82112L20.3488 8.97217L19.3512 7.05239L20.5518 7.75927C20.5807 7.7763 20.6216 7.77298 20.6587 7.7506L22.2044 6.82112Z" fill="#2A2A2A"/>
<path d="M21.5743 3.15655C21.5378 3.1595 21.5 3.18136 21.4749 3.2138L19.0647 6.31566C19.0473 6.33824 19.0377 6.36322 19.0367 6.3865C19.0353 6.39044 19.0339 6.3946 19.0328 6.39874C19.023 6.43703 19.0351 6.47129 19.0644 6.48794L20.6327 7.38051C20.6612 7.39677 20.7012 7.39353 20.7375 7.37201L22.7432 6.18975C22.7805 6.1677 22.8077 6.13026 22.8139 6.09227C22.8148 6.08814 22.8151 6.08407 22.8152 6.08023C22.8241 6.05632 22.8251 6.03203 22.8167 6.01154L21.6526 3.1994C21.6405 3.16998 21.6107 3.15359 21.5743 3.15655ZM22.4848 6.1338L20.7288 7.16894L19.3555 6.38745L21.0728 5.53661L22.4848 6.1338ZM19.4543 6.10552L21.5106 3.45882L22.5036 5.85836L21.1672 5.29354C21.1421 5.28284 21.11 5.28545 21.0795 5.30064L19.4543 6.10552ZM22.7258 6.38099C22.6999 6.34841 22.6475 6.34545 22.6004 6.3737L20.6491 7.54727L19.1331 6.65474C19.0965 6.63328 19.0412 6.64496 19.0005 6.68294C18.9595 6.72094 18.9443 6.77486 18.9639 6.81234L20.2134 9.21743C20.227 9.24358 20.2553 9.25738 20.2893 9.25463C20.3233 9.25187 20.3587 9.23291 20.3837 9.20363L22.7081 6.50885C22.7443 6.46685 22.7516 6.41356 22.7258 6.38099ZM22.2044 6.82112L20.3488 8.97217L19.3512 7.05239L20.5518 7.75927C20.5807 7.7763 20.6216 7.77298 20.6587 7.7506L22.2044 6.82112Z" stroke="white"/>
<path d="M9.5019 32.7095C8.00698 32.7095 6.79544 31.5011 6.79544 30.0106C6.79544 28.5198 8.00698 27.3116 9.5019 27.3116C10.9968 27.3116 12.2084 28.5198 12.2084 30.0106C12.2084 31.5011 10.9968 32.7095 9.5019 32.7095Z" fill="#C09A00" stroke="black" stroke-width="0.2" stroke-linecap="round" stroke-linejoin="round"/>
<path d="M4.53349 27.8331C4.46323 27.2044 5.01525 26.6395 5.53003 26.4167L5.60241 26.3713L8.41027 30.097L32.3963 30.0888L44.2801 14.0432C44.2801 14.0432 54.6646 22.3465 55.0092 23.4836C55.3247 24.5249 54.1678 25.5815 54.1678 25.5815L42.8076 38.903L18.0473 39.1669C14.8591 39.1774 10.2607 37.5031 7.82501 35.4516L5.97877 33.895C4.96981 33.0434 4.50446 32.2454 4.53139 31.6043H4.52929V27.8352H4.53139L4.53349 27.8331Z" fill="#8830F7" stroke="black" stroke-width="0.2" stroke-linecap="round" stroke-linejoin="round"/>
<path d="M10.8743 33.4105C9.70396 32.8579 8.64535 32.2105 7.82868 31.522L5.98244 29.9651C3.54883 27.9117 4.27252 26.1755 7.46074 26.1674" stroke="black" stroke-width="0.2" stroke-linecap="round" stroke-linejoin="round"/>
<path d="M18.0511 35.2372C16.3496 35.2414 14.2427 34.7671 12.2785 34.0104" stroke="black" stroke-width="0.2" stroke-linecap="round" stroke-linejoin="round"/>
<path d="M5.96218 26.2126C7.08705 25.8126 7.98009 25.757 9.15671 25.7177C10.5151 25.6724 12.2002 25.9569 13.5523 26.0622C15.2622 26.1963 16.9866 26.1446 18.6902 25.9487C19.7985 25.8209 20.9606 25.823 22.048 25.8373C22.6848 25.8457 23.3258 25.8602 23.9626 25.8931C24.4898 25.92 25.0006 26.0807 25.5299 26.0746C25.9972 26.0683 26.4541 25.8312 26.9152 25.7528C27.7898 25.6044 28.6498 25.6621 29.5285 25.6806C30.4239 25.6993 31.3232 25.6787 32.2123 25.8107C32.6341 25.8726 32.938 25.2621 33.1427 24.9858C33.4694 24.5406 33.8105 24.091 34.1868 23.687C34.5632 23.2827 34.985 22.9941 35.3592 22.6211C35.8038 22.1757 36.116 21.4972 36.4963 20.9984C37.2551 20.0065 38.0243 19.1468 38.8327 18.1942C38.963 18.0417 39.0892 17.8911 39.2194 17.7386C39.6927 17.1798 40.2429 16.6376 40.6438 16.0273C40.9478 15.5634 41.287 15.1159 41.6818 14.7221C42.4737 13.9345 43.5777 13.417 44.5497 14.2335L52.1231 20.5777C52.8819 21.217 52.9791 22.3488 52.336 23.1076L42.7404 34.4516L42.5972 34.6024C42.6611 34.6559 42.4216 34.6373 42.2816 34.7073C42.1907 34.7073 18.3099 35.0268 18.3099 35.0268C15.1217 35.0373 10.5233 33.363 8.0878 31.3115L6.24134 29.7549C5.08975 28.7859 3.92975 26.9282 5.95608 26.2065L5.96218 26.2126Z" fill="#D1ADFF" stroke="black" stroke-width="0.2" stroke-linecap="round" stroke-linejoin="round"/>
<path d="M25.9065 32.0289C25.9231 32.0516 25.9313 32.0742 25.9252 32.095C25.9189 32.1155 25.8983 32.1321 25.8632 32.1361C25.8362 32.1403 25.8032 32.1361 25.7702 32.1321C25.733 32.1258 25.6915 32.1155 25.6648 32.099C25.6524 32.0908 25.6419 32.0805 25.6358 32.0702C25.6151 32.0434 25.5943 32.0165 25.5943 31.9899C25.5943 31.963 25.613 31.9404 25.6543 31.9341C25.7536 31.9196 25.8695 31.9754 25.9065 32.0331V32.0289Z" stroke="black" stroke-width="0.2" stroke-linecap="round" stroke-linejoin="round"/>
<path d="M25.6636 32.1011C25.6636 32.1011 25.6512 32.1176 25.6406 32.1237C25.5788 32.1651 25.5125 32.2043 25.4444 32.2414" stroke="black" stroke-width="0.2" stroke-linecap="round" stroke-linejoin="round"/>
<path d="M25.9291 32.1281C26.0593 32.2084 26.175 32.2929 26.2764 32.3817C26.2764 32.3817 26.2804 32.3859 26.2764 32.3878C26.2764 32.3899 26.268 32.3878 26.2701 32.3859" stroke="black" stroke-width="0.2" stroke-linecap="round" stroke-linejoin="round"/>
<path d="M17.9894 32.0289C18.0058 32.0516 18.014 32.0742 18.0079 32.095C18.0016 32.1155 17.9809 32.1321 17.9458 32.1361C17.9189 32.1403 17.8859 32.1361 17.8528 32.1321C17.8156 32.1258 17.7741 32.1155 17.7474 32.099C17.735 32.0908 17.7247 32.0805 17.7184 32.0702C17.6978 32.0434 17.677 32.0165 17.677 31.9899C17.677 31.963 17.6957 31.9404 17.7369 31.9341C17.8362 31.9196 17.95 31.9754 17.9894 32.0331V32.0289Z" stroke="black" stroke-width="0.2" stroke-linecap="round" stroke-linejoin="round"/>
<path d="M17.7373 31.9158C17.6898 31.8621 17.6216 31.8128 17.5616 31.7612C17.5307 31.7343 17.5017 31.7096 17.4727 31.6827" stroke="black" stroke-width="0.2" stroke-linecap="round" stroke-linejoin="round"/>
<path d="M17.7476 32.1011C17.7476 32.1011 17.7351 32.1176 17.7248 32.1237C17.6628 32.1651 17.5965 32.2043 17.5284 32.2414" stroke="black" stroke-width="0.2" stroke-linecap="round" stroke-linejoin="round"/>
<path d="M17.9563 31.9817C18.039 31.9385 18.1198 31.893 18.1797 31.8395C18.1837 31.8395 18.1879 31.8437 18.1858 31.8437" stroke="black" stroke-width="0.2" stroke-linecap="round" stroke-linejoin="round"/>
<path d="M18.013 32.1281C18.1432 32.2084 18.2589 32.2929 18.3603 32.3817C18.3603 32.3817 18.3643 32.3859 18.3603 32.3878C18.3603 32.3899 18.3519 32.3878 18.354 32.3859" stroke="black" stroke-width="0.2" stroke-linecap="round" stroke-linejoin="round"/>
<path d="M13.9618 28.6353C13.9784 28.658 13.9866 28.6807 13.9805 28.7014C13.9742 28.722 13.9536 28.7386 13.9185 28.7425C13.8915 28.7467 13.8585 28.7426 13.8255 28.7386C13.7882 28.7323 13.7468 28.722 13.7199 28.7054C13.7075 28.6972 13.6972 28.687 13.6911 28.6767C13.6704 28.6498 13.6496 28.623 13.6496 28.5961C13.6496 28.5695 13.6683 28.5468 13.7096 28.5405C13.8089 28.526 13.9227 28.5819 13.9618 28.6395V28.6353Z" stroke="black" stroke-width="0.2" stroke-linecap="round" stroke-linejoin="round"/>
<path d="M13.7098 28.522C13.6623 28.4683 13.5941 28.4188 13.5321 28.3674C13.5011 28.3405 13.4721 28.3158 13.4431 28.2889" stroke="black" stroke-width="0.2" stroke-linecap="round" stroke-linejoin="round"/>
<path d="M13.9291 28.5878C14.0118 28.5446 14.0926 28.4991 14.1525 28.4456C14.1565 28.4456 14.1607 28.4498 14.1586 28.4498" stroke="black" stroke-width="0.2" stroke-linecap="round" stroke-linejoin="round"/>
<path d="M13.9844 28.7343C14.1148 28.8146 14.2305 28.8991 14.3319 28.9879C14.3338 28.9879 14.3359 28.9919 14.3338 28.994C14.3319 28.994 14.3256 28.994 14.3277 28.994" stroke="black" stroke-width="0.2" stroke-linecap="round" stroke-linejoin="round"/>
<path d="M42.3272 27.8868C42.4574 27.9672 42.5731 28.0538 42.6745 28.1403C42.6745 28.1403 42.6785 28.1445 42.6745 28.1466C42.6724 28.1466 42.6661 28.1466 42.6682 28.1445" stroke="black" stroke-width="0.2" stroke-linecap="round" stroke-linejoin="round"/>
<path d="M42.0269 33.5837C41.357 32.5631 40.1848 32.0063 39.2604 31.2064" stroke="black" stroke-width="0.2" stroke-linecap="round" stroke-linejoin="round"/>
<path d="M47.2644 26.7197C46.9253 26.3218 46.4002 26.0744 45.5381 26.3981" stroke="black" stroke-width="0.2" stroke-linecap="round" stroke-linejoin="round"/>
<path d="M18.0081 26.0209C17.427 26.1012 16.9288 26.3364 16.4098 26.7383" stroke="black" stroke-width="0.2" stroke-linecap="round" stroke-linejoin="round"/>
<path d="M9.81852 25.722C10.4078 25.7613 10.9907 25.8809 11.5594 26.0376C12.0805 26.1838 12.6634 26.3199 13.0997 26.656" stroke="black" stroke-width="0.2" stroke-linecap="round" stroke-linejoin="round"/>
<path d="M35.8967 21.9198C35.8183 22.0125 35.5927 22.3797 35.5742 22.4271C35.4646 22.6971 35.3653 22.9713 35.2765 23.2496" stroke="black" stroke-width="0.2" stroke-linecap="round" stroke-linejoin="round"/>
<path d="M42.3079 31.0105C41.642 31.4064 40.7862 31.4641 40.0728 31.1611C40.0522 31.1527 40.0253 31.1445 40.0129 31.1611C40.0005 31.1775 40.0398 31.2001 40.0377 31.1796" stroke="black" stroke-width="0.2" stroke-linecap="round" stroke-linejoin="round"/>
<path d="M39.2047 32.0042C39.5459 32.095 39.8745 32.2393 40.1703 32.4332" stroke="black" stroke-width="0.2" stroke-linecap="round" stroke-linejoin="round"/>
<path d="M16.1581 30.4589C16.0458 30.4589 15.9561 30.3674 15.9561 30.2574C15.9561 30.1477 16.0479 30.056 16.1581 30.056C16.2681 30.056 16.3619 30.1477 16.3619 30.2574C16.3619 30.3674 16.2702 30.4589 16.1581 30.4589Z" fill="#519FAA" stroke="black" stroke-width="0.2" stroke-linecap="round" stroke-linejoin="round"/>
<path d="M15.0702 30.4589C14.9579 30.4589 14.8683 30.3674 14.8683 30.2574C14.8683 30.1477 14.96 30.056 15.0702 30.056C15.1805 30.056 15.2722 30.1477 15.2722 30.2574C15.2722 30.3674 15.1825 30.4589 15.0702 30.4589Z" fill="#519FAA" stroke="black" stroke-width="0.2" stroke-linecap="round" stroke-linejoin="round"/>
<path d="M33.7284 31.9626C33.7446 31.9849 33.7527 32.0073 33.7467 32.0278C33.7404 32.048 33.7201 32.0644 33.6854 32.0683C33.6589 32.0725 33.6263 32.0683 33.5937 32.0644C33.5569 32.0582 33.516 32.048 33.4897 32.0317C33.4774 32.0236 33.4673 32.0135 33.461 32.0033C33.4407 31.9768 33.4201 31.9503 33.4201 31.924C33.4201 31.8976 33.4386 31.8752 33.4793 31.869C33.5773 31.8547 33.6896 31.9098 33.7284 31.9667V31.9626Z" stroke="black" stroke-width="0.2" stroke-linecap="round" stroke-linejoin="round"/>
<path d="M33.4791 31.8508C33.4322 31.7978 33.365 31.7492 33.3037 31.6983C33.2732 31.6718 33.2446 31.6473 33.2161 31.6208" stroke="black" stroke-width="0.2" stroke-linecap="round" stroke-linejoin="round"/>
<path d="M33.4906 32.0337C33.4906 32.0337 33.4784 32.05 33.4682 32.056C33.4069 32.0968 33.3418 32.1355 33.2764 32.1722" stroke="black" stroke-width="0.2" stroke-linecap="round" stroke-linejoin="round"/>
<path d="M33.6968 31.9156C33.7784 31.873 33.8579 31.8281 33.917 31.7753C33.9212 31.7753 33.9254 31.7794 33.9233 31.7794" stroke="black" stroke-width="0.2" stroke-linecap="round" stroke-linejoin="round"/>
<path d="M33.7507 32.0602C33.8792 32.1395 33.9934 32.2229 34.0935 32.3105C34.0935 32.3105 34.0974 32.3146 34.0935 32.3165C34.0935 32.3185 34.0852 32.3165 34.0872 32.3146" stroke="black" stroke-width="0.2" stroke-linecap="round" stroke-linejoin="round"/>
<path d="M29.7536 28.6138C29.77 28.6362 29.7781 28.6585 29.7721 28.679C29.7658 28.6993 29.7455 28.7156 29.7108 28.7196C29.6843 28.7237 29.6517 28.7196 29.6189 28.7156C29.5823 28.7094 29.5414 28.6993 29.5149 28.6829C29.5026 28.6749 29.4924 28.6647 29.4864 28.6546C29.4659 28.6281 29.4455 28.6016 29.4455 28.5751C29.4455 28.5488 29.464 28.5264 29.5047 28.5202C29.6027 28.5059 29.7148 28.561 29.7536 28.6179V28.6138Z" stroke="black" stroke-width="0.2" stroke-linecap="round" stroke-linejoin="round"/>
<path d="M29.5046 28.502C29.4577 28.449 29.3905 28.4001 29.3313 28.3494C29.3006 28.3229 29.2721 28.2985 29.2435 28.272" stroke="black" stroke-width="0.2" stroke-linecap="round" stroke-linejoin="round"/>
<path d="M29.5143 28.6848C29.5143 28.6848 29.502 28.7012 29.4919 28.7072C29.4306 28.748 29.3654 28.7867 29.2982 28.8233" stroke="black" stroke-width="0.2" stroke-linecap="round" stroke-linejoin="round"/>
<path d="M29.7213 28.567C29.8029 28.5243 29.8824 28.4794 29.9416 28.4266C29.9457 28.4266 29.9499 28.4308 29.9478 28.4308" stroke="black" stroke-width="0.2" stroke-linecap="round" stroke-linejoin="round"/>
<path d="M29.7758 28.7114C29.9045 28.7907 30.0187 28.8741 30.1185 28.9617C30.1185 28.9617 30.1227 28.9656 30.1185 28.9677C30.1185 28.9677 30.1104 28.9677 30.1125 28.9656" stroke="black" stroke-width="0.2" stroke-linecap="round" stroke-linejoin="round"/>
<path d="M25.667 31.8508C25.6201 31.7978 25.5528 31.7492 25.4916 31.6983C25.4611 31.6718 25.4324 31.6473 25.404 31.6208" stroke="black" stroke-width="0.2" stroke-linecap="round" stroke-linejoin="round"/>
<path d="M25.8832 31.9156C25.9648 31.873 26.0445 31.8281 26.1037 31.7753C26.1076 31.7753 26.1118 31.7794 26.1097 31.7794" stroke="black" stroke-width="0.2" stroke-linecap="round" stroke-linejoin="round"/>
<path d="M21.9411 28.6137C21.9575 28.636 21.9656 28.6584 21.9596 28.6789C21.9533 28.6992 21.933 28.7155 21.8983 28.7195C21.8717 28.7236 21.8392 28.7195 21.8066 28.7155C21.7698 28.7093 21.7289 28.6992 21.7024 28.6828C21.6901 28.6747 21.6799 28.6646 21.6739 28.6545C21.6534 28.628 21.633 28.6015 21.633 28.575C21.633 28.5487 21.6515 28.5263 21.6922 28.5201C21.7902 28.5058 21.9025 28.5609 21.9411 28.6178V28.6137Z" stroke="black" stroke-width="0.2" stroke-linecap="round" stroke-linejoin="round"/>
<path d="M21.6929 28.502C21.646 28.449 21.5787 28.4001 21.5175 28.3494C21.4869 28.3229 21.4583 28.2985 21.4297 28.272" stroke="black" stroke-width="0.2" stroke-linecap="round" stroke-linejoin="round"/>
<path d="M21.7007 28.6848C21.7007 28.6848 21.6884 28.7012 21.6781 28.7072C21.617 28.748 21.5516 28.7867 21.4844 28.8233" stroke="black" stroke-width="0.2" stroke-linecap="round" stroke-linejoin="round"/>
<path d="M21.9088 28.567C21.9904 28.5243 22.0699 28.4794 22.1291 28.4266C22.1332 28.4266 22.1374 28.4308 22.1353 28.4308" stroke="black" stroke-width="0.2" stroke-linecap="round" stroke-linejoin="round"/>
<path d="M21.9644 28.7114C22.0931 28.7907 22.2073 28.8741 22.3073 28.9617C22.3073 28.9617 22.3113 28.9656 22.3073 28.9677C22.3073 28.9677 22.299 28.9677 22.3011 28.9677" stroke="black" stroke-width="0.2" stroke-linecap="round" stroke-linejoin="round"/>
<path d="M13.8896 28.6848C13.8896 28.6848 13.8774 28.7012 13.8672 28.7072C13.806 28.748 13.7406 28.7867 13.6754 28.8233" stroke="black" stroke-width="0.2" stroke-linecap="round" stroke-linejoin="round"/>
<path d="M17.6454 29.5597C17.625 29.5862 17.5844 29.5698 17.5578 29.5495C17.5129 29.5129 17.4741 29.4702 17.4434 29.4234C17.4272 29.399 17.415 29.3725 17.3946 29.3522C17.366 29.3197 17.3251 29.3013 17.2844 29.2891C17.2068 29.2688 17.1212 29.279 17.0579 29.3257C16.9925 29.3725 16.9558 29.458 16.9743 29.5332C16.9743 29.5394 16.9784 29.5454 16.9844 29.5454C16.9907 29.5454 16.9925 29.5352 16.9844 29.5352" fill="#C09A00"/>
<path d="M17.7097 29.5922C17.6894 29.6187 17.5872 29.5698 17.5609 29.5516C17.5158 29.515 17.4772 29.4723 17.4465 29.4255C17.4303 29.4011 17.4181 29.3746 17.3975 29.3543C17.3691 29.3216 17.3282 29.3034 17.2875 29.2912C17.2098 29.2709 17.1241 29.281 17.061 29.3278C16.9956 29.3746 16.9589 29.4601 16.9773 29.5352C16.9773 29.5414 16.9813 29.5475 16.9875 29.5475C16.9935 29.5475 16.9956 29.5373 16.9875 29.5373" stroke="black" stroke-width="0.2" stroke-linecap="round" stroke-linejoin="round"/>
<path d="M21.6892 29.7205C21.4667 29.983 21.2668 30.2861 21.1526 30.6156C21.0301 30.9636 21.0139 31.407 20.7364 31.6776C20.6139 31.7956 20.3752 31.8933 20.2099 31.9117C19.9571 31.938 19.7163 31.7672 19.5511 31.5962C19.3674 31.407 19.2206 31.1772 19.0103 31.0205C18.7411 30.8212 18.3963 30.756 18.0718 30.6543C17.6884 30.5363 17.323 30.3633 16.9905 30.1416C16.8742 30.0643 16.7233 29.9586 16.6928 29.8141C16.6702 29.6982 16.6702 29.5456 16.7559 29.456C16.8375 29.3705 16.9824 29.3502 17.0762 29.4214C17.1049 29.4437 17.1273 29.4723 17.1559 29.4967C17.3639 29.6797 17.6923 29.5557 17.9271 29.517C18.0882 29.4905 18.2188 29.4926 18.3738 29.5456C18.5268 29.5963 18.7635 29.5924 18.9266 29.6025C19.2899 29.6228 19.6449 29.576 19.9918 29.4601C20.3692 29.3338 20.6486 29.1223 20.918 28.8293" fill="#C7A654"/>
<path d="M28.0667 27.4235C27.8404 27.3258 27.622 27.2058 27.4221 27.0613" stroke="black" stroke-width="0.2" stroke-linecap="round" stroke-linejoin="round"/>
<path d="M31.0354 31.6229C30.6906 31.5517 30.2459 31.3584 29.9277 31.212" stroke="black" stroke-width="0.2" stroke-linecap="round" stroke-linejoin="round"/>
<path d="M25.8344 28.7786C25.5242 28.8498 25.2344 29.0005 24.9957 29.2139" stroke="black" stroke-width="0.2" stroke-linecap="round" stroke-linejoin="round"/>
<path d="M21.6892 29.7205C21.4667 29.983 21.2668 30.2861 21.1526 30.6156C21.0301 30.9636 21.0139 31.407 20.7364 31.6776C20.6139 31.7956 20.3752 31.8933 20.2099 31.9117C19.9571 31.938 19.7163 31.7672 19.5511 31.5962C19.3674 31.407 19.2206 31.1772 19.0103 31.0205C18.7411 30.8212 18.3963 30.756 18.0718 30.6543C17.6884 30.5363 17.323 30.3633 16.9905 30.1416C16.8742 30.0643 16.7233 29.9586 16.6928 29.8141C16.6702 29.6982 16.6702 29.5456 16.7559 29.456C16.8375 29.3705 16.9824 29.3502 17.0762 29.4214C17.1049 29.4437 17.1273 29.4723 17.1559 29.4967C17.3639 29.6797 17.6923 29.5557 17.9271 29.517C18.0882 29.4905 18.2188 29.4926 18.3738 29.5456C18.5268 29.5963 18.7635 29.5924 18.9266 29.6025C19.2899 29.6228 19.6449 29.576 19.9918 29.4601C20.3692 29.3338 20.6486 29.1223 20.918 28.8293" stroke="black" stroke-width="0.2" stroke-linecap="round" stroke-linejoin="round"/>
<path d="M35.2263 27.2283C34.0003 25.9384 32.1048 25.2954 30.5299 24.555C29.4976 24.0687 28.3224 23.5783 27.2554 23.9793C26.9596 24.0911 26.6922 24.266 26.4271 24.4411C25.0949 25.3199 23.8197 26.2864 22.5874 27.2974C22.2283 27.5924 20.786 28.7195 20.3391 29.2872C20.1493 29.5273 21.9632 29.9587 22.2549 30.0177C22.4957 30.0663 22.7404 29.9647 22.9627 29.863C24.5562 29.1468 26.123 28.3718 27.6594 27.5396C27.7592 27.4847 27.8634 27.4297 27.9776 27.4359C28.1001 27.4419 28.2041 27.5193 28.3039 27.5905C29.1343 28.1886 30.0769 28.626 31.0725 28.8762" fill="#C3F53A"/>
<path d="M35.2263 27.2283C34.0003 25.9384 32.1048 25.2954 30.5299 24.555C29.4976 24.0687 28.3224 23.5783 27.2554 23.9793C26.9596 24.0911 26.6922 24.266 26.4271 24.4411C25.0949 25.3199 23.8197 26.2864 22.5874 27.2974C22.2283 27.5924 20.786 28.7195 20.3391 29.2872C20.1493 29.5273 21.9632 29.9587 22.2549 30.0177C22.4957 30.0663 22.7404 29.9647 22.9627 29.863C24.5562 29.1468 26.123 28.3718 27.6594 27.5396C27.7592 27.4847 27.8634 27.4297 27.9776 27.4359C28.1001 27.4419 28.2041 27.5193 28.3039 27.5905C29.1343 28.1886 30.0769 28.626 31.0725 28.8762" stroke="black" stroke-width="0.2" stroke-linecap="round" stroke-linejoin="round"/>
<path opacity="0.3" d="M22.1873 29.8608C22.1954 29.7815 22.277 29.7184 22.3526 29.6654C22.7096 29.4133 23.0625 29.1407 23.4339 28.9127C23.6971 28.75 23.9744 28.7173 24.252 28.5933C25.0823 28.2251 25.8738 27.6595 26.6307 27.1631C27.504 26.5934 28.4465 26.4692 29.4055 26.8253C30.5113 27.2364 31.6088 27.7328 32.8105 27.8425C32.4126 28.0623 32.0475 28.2149 31.6333 28.4041C31.2395 28.5871 31.158 28.8496 30.705 28.7092C29.8603 28.4509 29.0566 28.0582 28.3404 27.5394C28.2364 27.4641 28.1201 27.3807 27.9815 27.3726H27.9609C27.8345 27.3726 27.7243 27.4337 27.6304 27.4846C26.1024 28.3126 24.5233 29.0939 22.9379 29.806C22.7482 29.8913 22.5668 29.9666 22.3872 29.9687C22.3872 29.9523 22.377 29.938 22.3648 29.9279C22.3382 29.9076 22.2994 29.9118 22.2791 29.938C22.2791 29.9422 22.2689 29.9503 22.2444 29.9422C22.2139 29.93 22.1811 29.8933 22.1852 29.8608H22.1873Z" fill="black"/>
<path d="M13.2332 29.3237C13.2332 29.3237 13.229 29.33 13.229 29.332C13.2149 29.3687 13.2045 29.3991 13.2066 29.4397C13.2128 29.5293 13.2475 29.6208 13.2986 29.692C13.1964 29.7796 13.1842 29.8669 13.1883 29.9911C13.1985 30.396 13.7737 30.6931 14.0614 30.9189C14.4839 31.2524 14.9082 31.5882 15.2611 31.997C15.5264 32.3044 15.7794 32.3593 16.173 32.2697C16.4811 32.1985 16.628 31.9118 16.8994 31.7693C17.289 31.5658 17.848 31.5414 18.2806 31.5414C18.2173 31.5414 18.0133 30.2841 17.9807 30.1762C17.9747 30.1538 17.9684 30.1336 17.952 30.1151C17.9174 30.0766 17.8563 30.0868 17.8073 30.0948C17.4584 30.164 17.0729 30.1986 16.7177 30.1499C16.4097 30.1071 16.1323 30.1273 15.8222 30.099C15.5775 30.0766 15.4774 29.9545 15.2918 29.8303C14.7735 29.4846 14.339 29.2221 13.9554 28.7216C13.9004 28.6483 13.837 28.5731 13.7513 28.5466C13.6147 28.5079 13.4719 28.6098 13.4372 28.7418C13.4372 28.7481 13.4331 28.7561 13.431 28.7603C13.4065 28.7928 13.3781 28.8131 13.3557 28.8478C13.3312 28.8863 13.3148 28.9271 13.3046 28.9718C13.2822 29.0573 13.278 29.1488 13.2842 29.2364C13.2842 29.2424 13.2454 29.2933 13.2332 29.3177V29.3217V29.3237Z" fill="#C7A654" stroke="black" stroke-width="0.2" stroke-linecap="round" stroke-linejoin="round"/>
<path d="M32.8108 27.8976C31.5846 28.0785 31.4253 27.8142 30.1993 27.8488C29.1709 27.8771 27.9713 27.9993 27.0187 28.4083C26.1271 28.7927 25.3231 28.8457 24.3398 28.9432C23.0995 29.0653 21.8631 29.2036 20.6288 29.3624C20.1167 29.4276 19.6087 29.5007 19.1047 29.6085C18.8518 29.6636 18.6009 29.7265 18.354 29.7998C18.199 29.8466 18.0356 29.9015 17.9011 29.9971C17.75 30.107 17.6827 30.2536 17.697 30.4326C17.7072 30.5647 17.7296 30.6949 17.7622 30.8251C17.8357 31.1141 17.9519 31.5474 18.2866 31.6227C18.4335 31.6552 18.5805 31.6716 18.7293 31.6981C18.8578 31.7204 18.9824 31.7509 19.1109 31.7753C20.0147 31.9483 20.9186 32.1191 21.8386 32.1802C22.6689 32.235 23.4604 32.0196 24.2949 31.9991C26.1555 31.9543 28.2324 32.1415 30.0565 31.7591C30.3237 31.702 30.5869 31.6186 30.8603 31.6105C31.05 31.6045 31.2418 31.6349 31.4295 31.6695C33.4881 32.056 35.6995 33.1587 37.6724 31.9543C38.3845 31.519 38.9701 30.9005 39.4475 30.2209C39.1413 29.983 38.8517 29.7489 38.5416 29.5108C38.1009 29.1691 37.6602 28.8252 37.24 28.4572C36.7402 28.0177 36.2729 27.5436 35.8731 27.0145" fill="#C3F53A"/>
<path d="M32.8108 27.8976C31.5846 28.0785 31.4253 27.8142 30.1993 27.8488C29.1709 27.8771 27.9713 27.9993 27.0187 28.4083C26.1271 28.7927 25.3231 28.8457 24.3398 28.9432C23.0995 29.0653 21.8631 29.2036 20.6288 29.3624C20.1167 29.4276 19.6087 29.5007 19.1047 29.6085C18.8518 29.6636 18.6009 29.7265 18.354 29.7998C18.199 29.8466 18.0356 29.9015 17.9011 29.9971C17.75 30.107 17.6827 30.2536 17.697 30.4326C17.7072 30.5647 17.7296 30.6949 17.7622 30.8251C17.8357 31.1141 17.9519 31.5474 18.2866 31.6227C18.4335 31.6552 18.5805 31.6716 18.7293 31.6981C18.8578 31.7204 18.9824 31.7509 19.1109 31.7753C20.0147 31.9483 20.9186 32.1191 21.8386 32.1802C22.6689 32.235 23.4604 32.0196 24.2949 31.9991C26.1555 31.9543 28.2324 32.1415 30.0565 31.7591C30.3237 31.702 30.5869 31.6186 30.8603 31.6105C31.05 31.6045 31.2418 31.6349 31.4295 31.6695C33.4881 32.056 35.6995 33.1587 37.6724 31.9543C38.3845 31.519 38.9701 30.9005 39.4475 30.2209C39.1413 29.983 38.8517 29.7489 38.5416 29.5108C38.1009 29.1691 37.6602 28.8252 37.24 28.4572C36.7402 28.0177 36.2729 27.5436 35.8731 27.0145" stroke="black" stroke-width="0.2" stroke-linecap="round" stroke-linejoin="round"/>
<path opacity="0.3" d="M24.2905 32.0012C26.1511 31.9565 28.228 32.1436 30.0539 31.7611C30.3213 31.7041 30.5843 31.6207 30.8577 31.6126C31.0495 31.6064 31.2393 31.6371 31.429 31.6716C33.4856 32.0581 35.699 33.1608 37.6719 31.9565C38.0209 31.7428 38.3412 31.4824 38.631 31.1955C38.9206 30.9086 39.0634 30.6055 39.2675 30.2555C39.1859 30.3961 38.9471 30.52 38.8226 30.632C38.643 30.7947 38.4595 30.9533 38.2677 31.1019C37.7944 31.4661 37.2904 31.6859 36.7274 31.8608C36.1296 32.0459 35.4952 31.989 34.8809 31.936C34.2466 31.8811 33.6242 31.7977 33.0102 31.6288C32.1431 31.3889 31.2638 31.1162 30.3662 31.1792C29.7725 31.222 29.197 31.4112 28.6116 31.5209C27.8668 31.6594 27.1039 31.6654 26.3489 31.6493C25.5942 31.6329 24.8923 31.6838 24.1618 31.7449C23.7437 31.7795 23.3254 31.8242 22.9113 31.8933C22.1055 32.0256 21.2647 31.997 20.4487 31.9482C20.7364 32.0703 21.0385 32.1579 21.3484 32.2127C21.4464 32.2291 21.5443 32.2432 21.6442 32.2432C21.8096 32.2432 21.9483 32.1761 22.1094 32.16C22.3543 32.1335 22.6033 32.1314 22.8501 32.109C23.3315 32.0683 23.811 32.0194 24.2945 32.0072V32.0033L24.2905 32.0012Z" fill="black"/>
<path d="M26.2499 24.5917C25.6562 25.0699 25.1808 25.6923 24.8788 26.3922" stroke="black" stroke-width="0.2" stroke-linecap="round" stroke-linejoin="round"/>
<path d="M36.8643 29.2424C36.54 29.4072 36.2685 29.6778 36.1115 30.0073C36.0055 30.2292 35.9503 30.4754 35.9156 30.7194C35.9013 30.8171 35.8809 30.9006 35.8788 30.9983V30.984" stroke="black" stroke-width="0.2" stroke-linecap="round" stroke-linejoin="round"/>
<path d="M23.9812 31.0797C23.4874 31.4459 22.9325 31.5436 22.3307 31.633" stroke="black" stroke-width="0.2" stroke-linecap="round" stroke-linejoin="round"/>
<path d="M13.819 29.1549L13.721 29.1489C13.617 29.1429 13.519 29.1042 13.464 29.0106C13.4109 28.9231 13.4416 28.7746 13.4843 28.6829C13.4864 28.6829 13.4762 28.7014 13.4742 28.6993C13.4721 28.6972 13.4742 28.6952 13.4742 28.6931C13.4945 28.6567 13.519 28.6221 13.5537 28.5977" stroke="black" stroke-width="0.2" stroke-linecap="round" stroke-linejoin="round"/>
<path d="M13.2803 29.1C13.2722 29.1548 13.2639 29.226 13.3069 29.271C13.364 29.332 13.4742 29.3461 13.5516 29.3563" stroke="black" stroke-width="0.2" stroke-linecap="round" stroke-linejoin="round"/>
<path d="M16.4834 31.2993C16.4936 31.4357 16.4099 31.5719 16.2877 31.627C16.1631 31.6819 16.006 31.6473 15.9142 31.5454" stroke="black" stroke-width="0.2" stroke-linecap="round" stroke-linejoin="round"/>
<path d="M13.5861 30.0604C14.0044 30.4368 14.4329 30.8193 14.9531 31.0288C15.0756 31.0777 15.2061 31.1224 15.2939 31.218" stroke="black" stroke-width="0.2" stroke-linecap="round" stroke-linejoin="round"/>
<path d="M37.1396 30.5443C36.289 31.2687 35.3974 31.1548 34.2855 31.0285C33.1735 30.9025 32.0922 30.5628 30.9762 30.4895C29.3116 30.3816 27.6712 30.87 26.0736 31.3541" stroke="black" stroke-width="0.2" stroke-linecap="round" stroke-linejoin="round"/>
<path d="M48.8919 20.4359L48.8919 20.436C48.7013 20.6479 48.528 20.8063 48.3404 20.9778C48.3049 21.0102 48.269 21.043 48.2324 21.0767C48.0025 21.2884 47.7494 21.5316 47.4284 21.9116L45.9797 23.2886L45.2609 23.2223L44.6892 21.5701L45.8777 20.1912L47.432 18.7886L47.5504 18.6818L47.4027 18.6217L46.7285 18.3478L47.0975 17.2341C47.1419 17.2342 47.2074 17.2348 47.2948 17.2366C47.477 17.2403 47.7541 17.2491 48.1329 17.2695C48.5074 17.2897 48.9487 17.3513 49.2982 17.4083C49.4726 17.4367 49.6233 17.4638 49.7304 17.4838C49.784 17.4939 49.8266 17.5021 49.8558 17.5078L49.8591 17.5085C50.1325 17.9527 50.1024 18.5495 49.8877 19.0526L49.8877 19.0526C49.6672 19.5696 49.2829 20.0012 48.8919 20.4359Z" fill="#C7A654" stroke="black" stroke-width="0.2"/>
<path d="M48.5902 17.5426C48.5945 17.5475 48.5161 17.6257 48.3884 17.7509C48.2501 17.8864 48.0784 18.0548 47.8886 18.2408C47.6928 18.4315 47.5126 18.6016 47.3785 18.7212C47.2448 18.8407 47.1579 18.9101 47.1536 18.9051C47.149 18.9002 47.2281 18.8223 47.3558 18.6968C47.4934 18.5617 47.6655 18.3933 47.8556 18.2069C48.0514 18.0162 48.2313 17.8461 48.3653 17.7269C48.4991 17.6073 48.586 17.538 48.5902 17.5426Z" fill="#111111"/>
<path d="M49.7164 17.8774C49.7108 17.8827 49.6746 17.8424 49.6019 17.7999C49.5306 17.7571 49.417 17.7161 49.2908 17.727C49.1645 17.7384 49.0599 17.7985 48.9971 17.8526C48.9329 17.9074 48.9041 17.9531 48.8974 17.9492C48.8928 17.9471 48.9116 17.8933 48.974 17.8286C49.035 17.7642 49.1468 17.6927 49.2865 17.68C49.4266 17.668 49.549 17.7193 49.6199 17.772C49.693 17.825 49.7207 17.8745 49.7164 17.8774Z" fill="#111111"/>
<path d="M46.7375 17.6875L46.9174 17.6357C47.0209 17.6059 47.1081 17.5243 47.1577 17.4188C47.2072 17.3133 47.2142 17.1945 47.1711 17.0964L47.171 17.0964C47.1497 17.0478 47.1181 17.002 47.0789 16.9517C47.0681 16.9379 47.0563 16.9231 47.044 16.9077C47.0145 16.8709 46.9822 16.8306 46.9544 16.7904M46.7375 17.6875L42.7427 16.1137C42.8632 16.0543 42.9454 15.9726 43.0131 15.884C43.0464 15.8403 43.0766 15.7945 43.1056 15.7495C43.1115 15.7403 43.1174 15.7312 43.1232 15.7221C43.1465 15.6859 43.1694 15.6502 43.1945 15.6138L43.1945 15.6137C43.2502 15.5327 43.2866 15.4368 43.3176 15.3553C43.3244 15.3373 43.331 15.32 43.3374 15.3037C43.3761 15.2062 43.4132 15.1348 43.4734 15.0873L43.4735 15.0872C43.5485 15.0278 43.6486 15.0129 43.7849 15.0007C43.7936 14.9999 43.8025 14.9991 43.8116 14.9983C43.9321 14.9879 44.0806 14.975 44.2062 14.8992M46.7375 17.6875L46.8807 17.8082C47.0266 17.9312 47.0753 18.1602 46.9924 18.3316M46.7375 17.6875L46.9292 16.5355C46.9593 16.6051 46.9937 16.6716 47.0366 16.7335M46.9544 16.7904L47.0366 16.7335M46.9544 16.7904C46.9544 16.7904 46.9544 16.7905 46.9545 16.7905L47.0366 16.7335M46.9544 16.7904C46.9067 16.7216 46.8693 16.6489 46.8374 16.5752L46.8337 16.5666L46.8341 16.5664L46.7089 16.1819L46.7071 16.1765L46.7072 16.1764C46.7013 16.1539 46.6955 16.1316 46.6898 16.1095C46.6535 15.9701 46.6193 15.839 46.5706 15.7184C46.5149 15.5807 46.4429 15.4647 46.3347 15.3768C46.2359 15.2967 46.1149 15.2482 45.9763 15.2025C45.9487 15.1934 45.9201 15.1843 45.8909 15.175C45.7789 15.1395 45.6576 15.1011 45.5467 15.046L45.5466 15.0459C45.4431 14.9943 45.3494 14.929 45.2623 14.8674C45.257 14.8637 45.2517 14.8599 45.2464 14.8562C45.1635 14.7975 45.0864 14.7428 45.0039 14.698C44.8275 14.6021 44.6292 14.5714 44.493 14.6552C44.4512 14.6812 44.4147 14.7172 44.3683 14.7633L44.3665 14.7651C44.3234 14.808 44.271 14.8601 44.2062 14.8992M47.0366 16.7335C47.0624 16.7707 47.0908 16.8063 47.1193 16.8417C47.1736 16.9095 47.2279 16.9772 47.2626 17.0561C47.3612 17.2802 47.2536 17.566 47.0456 17.6884C47.0341 17.6769 47.0221 17.6658 47.0096 17.6553L46.9451 17.7317L46.9728 17.8278C46.9892 17.8231 47.0051 17.8177 47.0207 17.8115C47.1406 17.9694 47.1692 18.1957 47.0824 18.3752M44.2062 14.8992L44.1546 14.8135L44.2063 14.8991C44.2062 14.8991 44.2062 14.8992 44.2062 14.8992ZM47.0824 18.3752L46.9924 18.3316C46.9924 18.3316 46.9924 18.3316 46.9924 18.3316M47.0824 18.3752C47.0395 18.4637 46.9736 18.538 46.908 18.6119C46.8868 18.6357 46.8657 18.6594 46.8454 18.6836L47.0824 18.3752ZM46.9924 18.3316C46.9691 18.3796 46.9365 18.4247 46.8971 18.472C46.8774 18.4956 46.8567 18.519 46.8349 18.5436L46.8328 18.5459C46.812 18.5694 46.79 18.5941 46.7688 18.6194M46.9924 18.3316L46.7688 18.6194M46.7688 18.6194C46.6695 18.7378 46.6274 18.8814 46.5931 19.0048C46.4814 19.4053 46.0856 19.6519 45.701 19.7976C45.5123 19.869 45.3346 19.913 45.2119 19.9381C45.1725 19.9461 45.139 19.9522 45.1128 19.9565L45.0403 19.8594L45.0237 19.8371L44.998 19.8266C44.4579 19.606 44.0233 19.1868 43.5882 18.7604L43.5755 18.7479L43.5592 18.7406L42.209 18.1338C42.2087 18.133 42.2083 18.1321 42.208 18.1311C42.2037 18.1195 42.1996 18.101 42.1973 18.0745C42.1926 18.0215 42.1961 17.952 42.2056 17.8762C42.2249 17.7229 42.2654 17.569 42.2894 17.5137L42.2894 17.5136C42.2971 17.4958 42.3056 17.4768 42.3144 17.457C42.3366 17.4074 42.361 17.3529 42.381 17.2992C42.4097 17.2225 42.4341 17.1372 42.4366 17.0481L42.4366 17.048C42.4392 16.9567 42.4463 16.8893 42.4537 16.8198C42.4541 16.8162 42.4545 16.8125 42.4548 16.8089C42.4626 16.7349 42.4703 16.6579 42.4714 16.5525L46.7688 18.6194Z" fill="#00ED7B" stroke="black" stroke-width="0.2"/>
<path d="M42.8276 21.9406L42.8276 21.9404L42.8213 21.9384C42.7853 21.9272 42.7232 21.8828 42.6511 21.7939C42.5819 21.7086 42.5124 21.5933 42.4576 21.4603C42.3474 21.1924 42.3026 20.8683 42.4176 20.5808L42.3335 20.5471L42.4176 20.5808C42.4746 20.4383 42.5254 20.3107 42.5617 20.2186C42.5798 20.1725 42.5945 20.1351 42.6045 20.109L42.6162 20.0777L42.6201 20.0664C42.6206 20.065 42.6217 20.0615 42.6227 20.0573L42.6227 20.0572C42.6231 20.0557 42.6245 20.0499 42.6252 20.0425C42.6254 20.0396 42.6263 20.0294 42.6242 20.0166L42.6241 20.0164C42.6233 20.0116 42.6158 19.9659 42.5703 19.9437L42.565 19.9407C42.5592 19.9374 42.5504 19.9321 42.539 19.925C42.5162 19.9108 42.4835 19.8891 42.4449 19.86C42.3674 19.8016 42.268 19.7144 42.1789 19.5991C42.0025 19.3711 41.8651 19.0335 42.0191 18.577L42.0191 18.577C42.1783 18.1041 42.5883 17.1509 42.972 16.2872L42.972 16.2872C43.3626 15.4078 44.3655 14.9754 45.276 15.2929L45.2761 15.2929L45.3687 15.3252C45.8418 15.5228 46.1231 15.874 46.2364 16.2919C46.3507 16.7135 46.2953 17.2095 46.0791 17.689L46.079 17.689L46.0782 17.6909L44.6068 21.1453C44.5979 21.1526 44.5859 21.1624 44.571 21.1743C44.5358 21.2025 44.4847 21.2427 44.4213 21.2902C44.2943 21.3853 44.119 21.5093 43.925 21.6256C43.7304 21.7422 43.5202 21.8489 43.3232 21.9117C43.1233 21.9755 42.953 21.9889 42.8276 21.9406Z" fill="#C7A654" stroke="black" stroke-width="0.2"/>
<path d="M42.5935 20.033C42.5935 20.033 43.2037 20.2866 44.0135 20.1023C44.0135 20.1023 43.4484 20.7096 42.4932 20.277L42.5935 20.033Z" fill="#111111"/>
<path d="M42.7612 17.12C42.7726 17.1444 42.907 17.1027 43.0588 17.1561C43.211 17.2074 43.2954 17.3241 43.3181 17.3114C43.3291 17.3061 43.3231 17.2665 43.2869 17.2145C43.2514 17.1628 43.1819 17.1002 43.0872 17.0677C42.9921 17.0351 42.9006 17.0419 42.8425 17.0617C42.7829 17.0811 42.7556 17.1087 42.7612 17.12Z" fill="#17282F"/>
<path d="M44.2535 17.5768C44.2645 17.6012 44.3993 17.5598 44.5511 17.6132C44.7033 17.6642 44.7874 17.7809 44.8104 17.7682C44.8214 17.7629 44.8154 17.7236 44.7789 17.6713C44.7437 17.6196 44.6742 17.557 44.5792 17.5245C44.4845 17.4919 44.3926 17.499 44.3344 17.5184C44.2755 17.5379 44.2479 17.5655 44.2535 17.5768Z" fill="#17282F"/>
<path d="M43.4613 18.2831C43.4652 18.275 43.3762 18.2258 43.2301 18.1529C43.1928 18.1352 43.1588 18.1147 43.1616 18.0861C43.1623 18.0549 43.1932 18.0189 43.2276 17.9803C43.2971 17.8997 43.3695 17.8148 43.4457 17.726C43.7519 17.362 43.9885 17.0578 43.9736 17.0454C43.9587 17.0334 43.6983 17.3181 43.3918 17.6821C43.3173 17.772 43.246 17.8579 43.1783 17.94C43.1481 17.9789 43.1052 18.0199 43.1049 18.0847C43.1049 18.1172 43.1261 18.1483 43.1488 18.1635C43.1708 18.1798 43.1925 18.1879 43.2113 18.1957C43.3624 18.2576 43.4578 18.2916 43.4613 18.2831Z" fill="#17282F"/>
<path d="M43.872 18.5443C43.8475 18.534 43.7897 18.6982 43.6078 18.7657C43.4258 18.8336 43.2562 18.754 43.247 18.7763C43.241 18.7859 43.275 18.822 43.3485 18.8499C43.4205 18.8778 43.5347 18.8916 43.6461 18.8503C43.7575 18.8089 43.8277 18.7261 43.8571 18.6607C43.8876 18.5942 43.8834 18.5471 43.872 18.5443Z" fill="#17282F"/>
<path d="M44.6388 16.6978C44.6391 16.7441 44.7977 16.7773 44.9683 16.8612C45.1407 16.9415 45.2663 17.0433 45.3028 17.0147C45.3195 17.0005 45.3081 16.9531 45.2642 16.893C45.2205 16.8332 45.1418 16.7635 45.0389 16.714C44.936 16.6652 44.8321 16.6479 44.758 16.6518C44.6835 16.655 44.6391 16.6758 44.6388 16.6978Z" fill="#17282F"/>
<path d="M43.1876 16.2474C43.2025 16.2913 43.3196 16.292 43.4459 16.3341C43.5739 16.372 43.6704 16.4385 43.7073 16.4109C43.7243 16.3974 43.7197 16.3571 43.6846 16.3083C43.6498 16.2598 43.5824 16.2064 43.4952 16.1788C43.4076 16.1512 43.3217 16.1565 43.2657 16.1763C43.2089 16.1962 43.182 16.2266 43.1876 16.2474Z" fill="#17282F"/>
<path d="M46.1822 19.1029L46.1822 19.103C46.1261 19.2566 46.0582 19.3373 45.9964 19.3791C45.9355 19.4202 45.8702 19.4305 45.804 19.4237C45.7362 19.4167 45.67 19.3917 45.6148 19.3646C45.5876 19.3513 45.5641 19.3379 45.5453 19.3268C45.5422 19.325 45.5386 19.3228 45.5349 19.3206C45.5268 19.3157 45.5176 19.3102 45.5094 19.3056C45.5102 19.2942 45.512 19.2786 45.5159 19.2581C45.531 19.1779 45.5682 19.0654 45.6137 18.9467C45.6586 18.8296 45.7094 18.7119 45.7492 18.6232C45.7639 18.5905 45.777 18.5618 45.7877 18.5386C45.802 18.5406 45.8182 18.5432 45.8358 18.5466C45.9014 18.5593 45.981 18.5821 46.0511 18.6214C46.1208 18.6604 46.1754 18.7124 46.203 18.7821C46.2303 18.851 46.2373 18.9524 46.1822 19.1029Z" fill="#C7A654" stroke="black" stroke-width="0.2"/>
<path d="M45.6478 19.2116C45.6517 19.2106 45.6563 19.2244 45.6726 19.241C45.6882 19.2569 45.7191 19.2757 45.7588 19.2764C45.8393 19.2774 45.9422 19.1886 45.9918 19.0698C46.017 19.0097 46.0266 18.9471 46.0238 18.8912C46.022 18.8342 46.0035 18.7882 45.9706 18.7681C45.9383 18.7465 45.9049 18.7578 45.8897 18.7734C45.8734 18.7886 45.8727 18.8038 45.8684 18.8034C45.8659 18.8045 45.8585 18.7868 45.8744 18.7613C45.8822 18.7493 45.8964 18.7366 45.917 18.7299C45.9383 18.7228 45.9642 18.7253 45.9879 18.7376C46.0383 18.761 46.0663 18.8261 46.0695 18.8876C46.0756 18.9506 46.0663 19.0217 46.038 19.0889C45.9819 19.2215 45.8641 19.3206 45.7567 19.3114C45.7052 19.3054 45.6712 19.2764 45.6573 19.2527C45.6428 19.2283 45.6453 19.212 45.6478 19.2116Z" fill="#111111"/>
<path d="M43.7485 15.3166C43.6644 15.2148 44.1262 14.9947 44.4387 14.9795C44.9109 14.9565 45.5664 15.0864 45.8938 15.3368C46.2882 15.6378 46.5698 16.0043 46.6326 16.4956C46.6954 16.9873 46.5926 17.4903 46.3967 17.9455C46.3368 18.0845 46.2641 18.225 46.1417 18.3141C45.9902 18.4241 45.7753 18.446 45.7026 18.6515C45.676 18.7269 45.6249 18.7934 45.5525 18.827C45.3794 18.908 45.2787 18.728 45.2585 18.579C45.2156 18.261 45.3227 17.9441 45.428 17.641C45.5032 17.4255 45.5806 17.2059 45.7214 17.0262C45.798 16.9282 45.8916 16.8444 45.9629 16.7425C46.0339 16.6406 46.0811 16.5119 46.0474 16.3923C46.042 16.3729 46.0307 16.3467 46.0151 16.3166C45.892 16.0771 45.6472 15.9233 45.378 15.9134C44.9506 15.8975 44.2316 15.8419 44.1149 15.6491C43.9467 15.3715 43.9365 15.2296 43.9365 15.2296L43.7485 15.3166Z" fill="#00ED7B"/>
<path d="M45.8948 15.2327C45.5774 14.966 45.1584 14.8079 44.7456 14.8497C44.5263 14.8719 44.3025 14.9572 44.1688 15.1319C44.0354 15.3067 44.0234 15.5819 44.1823 15.734L44.1922 15.7474C44.4384 15.9551 44.6381 15.9901 44.9602 16.0042C45.2312 16.0159 45.5014 15.9533 45.7724 15.9664C46.0605 15.9805 46.3435 16.0827 46.5737 16.2564C46.434 15.8666 46.2123 15.4995 45.8948 15.2327Z" fill="#00ED7B"/>
<path d="M43.9221 15.2698C43.9768 15.5788 44.3924 16.1532 45.6174 15.9787C45.7487 15.9351 45.9273 16.1787 46.0002 16.3059C46.0549 16.3968 46.1206 16.6222 45.9456 16.7968C45.7268 17.0149 44.8518 18.2147 45.344 18.76C45.5081 18.9236 45.7815 18.6509 45.7815 18.5419C45.7815 18.4546 45.8909 18.4328 45.9456 18.4328" stroke="black" stroke-width="0.2"/>
<path d="M35.299 23.5608L35.2981 23.5593L34.4739 21.9882L35.0654 21.0589L38.1387 24.2602L37.0819 25.9702C37.0214 25.9301 36.9042 25.8299 36.6932 25.5941C36.4599 25.333 36.112 24.8264 35.8192 24.3793C35.6736 24.1569 35.5429 23.9511 35.4485 23.8009C35.4013 23.7258 35.3633 23.6647 35.337 23.6223L35.3068 23.5735L35.299 23.5608Z" fill="#C7A654" stroke="black" stroke-width="0.2"/>
<path d="M33.8323 20.0253L33.8163 20.0223C33.8003 20.0195 33.7772 20.0156 33.7485 20.011C33.6912 20.0018 33.6131 19.9899 33.528 19.977C33.3581 19.9514 33.1614 19.9226 33.0497 19.9064L33.0497 19.9064C33.0162 19.9015 32.982 19.9091 32.9532 19.928C32.9531 19.9281 32.9531 19.9281 32.9531 19.9281L32.6392 20.1358L32.4109 20.6183L32.4215 20.6253C32.4543 20.6469 32.4713 20.6857 32.4652 20.7245L32.3904 21.1925C32.3922 21.1932 32.3939 21.1938 32.3956 21.1943C32.4055 21.1974 32.414 21.1977 32.4226 21.1951C32.4314 21.1925 32.4492 21.1841 32.473 21.1549C32.5352 21.0786 32.5934 20.9849 32.6367 20.9083C32.6582 20.8703 32.6756 20.8374 32.6876 20.814L32.7013 20.7869L32.7047 20.7799L32.7055 20.7782L32.7057 20.7778L32.7057 20.7778C32.7057 20.7778 32.7057 20.7778 32.7057 20.7778M33.8323 20.0253L32.796 20.8208L32.7057 20.7778M33.8323 20.0253C33.8362 20.0265 33.8401 20.0275 33.8441 20.0282M33.8323 20.0253L33.8441 20.0282M32.7057 20.7778C32.722 20.7436 32.7563 20.7215 32.7942 20.7209L33.1599 20.7145C33.1946 20.7139 33.2271 20.7313 33.2459 20.7605C33.2646 20.7897 33.2668 20.8265 33.2518 20.8578L33.2355 20.8917C33.2227 20.9184 33.1987 20.938 33.17 20.9453L32.8449 21.0282L32.7524 21.2646L32.8447 21.534L33.0472 21.7192L33.1149 21.7163C33.1344 21.7155 33.1538 21.7204 33.1706 21.7305L33.3022 21.8095C33.3069 21.8019 33.3112 21.7939 33.3149 21.7856C33.3248 21.7633 33.3287 21.7427 33.3264 21.7238C33.3242 21.7065 33.3158 21.6821 33.2857 21.6521C33.2468 21.6131 33.2466 21.55 33.2854 21.5109C33.3242 21.4719 33.3872 21.4714 33.4264 21.51C33.4265 21.51 33.4265 21.51 33.4265 21.51C33.4265 21.51 33.4265 21.51 33.4265 21.51C33.4265 21.51 33.4265 21.51 33.4265 21.5101L33.4265 21.5101L33.4266 21.5101L33.4271 21.5106L33.4274 21.5109L33.4316 21.5148C33.4355 21.5184 33.4414 21.5237 33.4488 21.53C33.4639 21.5427 33.484 21.5583 33.5056 21.5717C33.5281 21.5857 33.5471 21.594 33.5605 21.597C33.5631 21.5976 33.565 21.5979 33.5664 21.598C33.5947 21.5804 33.63 21.5779 33.6606 21.5918L34.3618 21.9101L34.8961 21.3958L35.0299 21.0185L34.9254 20.9165C34.8348 20.8282 34.7135 20.71 34.5904 20.5905C34.4672 20.4709 34.3424 20.35 34.2448 20.2564C34.1959 20.2095 34.1541 20.1696 34.1228 20.1402C34.1071 20.1255 34.0943 20.1136 34.0847 20.1048C34.0762 20.097 34.072 20.0934 34.0707 20.0923C34.0704 20.092 34.0703 20.0919 34.0704 20.092L34.0702 20.0919C34.0702 20.0919 34.0675 20.09 34.0604 20.0868C34.053 20.0833 34.0433 20.0794 34.0314 20.0752C34.0075 20.0667 33.9789 20.0586 33.9504 20.0515C33.9221 20.0443 33.8954 20.0385 33.8756 20.0344L33.8522 20.0297L33.846 20.0286L33.8445 20.0283L33.8441 20.0282L33.8441 20.0282M32.7057 20.7778L33.8441 20.0282M34.1311 20.0126C34.0733 19.968 33.8619 19.9298 33.8619 19.9298C33.8516 19.9227 33.2876 19.84 33.0641 19.8074L34.1311 20.0126Z" fill="#C7A654" stroke="black" stroke-width="0.2" stroke-linejoin="round"/>
<path d="M33.36 21.571C33.3526 21.5693 33.3632 21.5247 33.3533 21.4557C33.344 21.3881 33.3082 21.2923 33.2256 21.2283L33.2124 21.218L33.1979 21.2074L33.2032 21.1915C33.2341 21.0946 33.2277 20.9994 33.2128 20.9347C33.1979 20.8692 33.1777 20.8314 33.1841 20.8278C33.1887 20.8247 33.2195 20.8576 33.244 20.9258C33.2688 20.9923 33.2823 21.0974 33.2483 21.206L33.2391 21.1794L33.2547 21.1911C33.3511 21.2661 33.3852 21.3779 33.3866 21.4529C33.3884 21.53 33.3646 21.5731 33.36 21.571Z" fill="#111111"/>
<path d="M33.0882 21.8156C33.0836 21.8095 33.1322 21.7816 33.1539 21.7048C33.1787 21.6295 33.1503 21.5163 33.0737 21.4176C33.0535 21.3897 33.0318 21.3631 33.0113 21.3373L33.0028 21.3271L33.0074 21.315C33.0407 21.2252 33.0077 21.1371 32.9669 21.094C32.9265 21.0483 32.8882 21.0352 32.891 21.0289C32.8914 21.0246 32.9354 21.0275 32.9882 21.0731C33.0404 21.1155 33.0893 21.2202 33.0506 21.3306L33.0467 21.3083C33.068 21.3334 33.0904 21.3607 33.112 21.39C33.151 21.4431 33.1815 21.5015 33.1947 21.5595C33.2081 21.6171 33.2028 21.6737 33.1858 21.7155C33.1507 21.8018 33.0886 21.8212 33.0882 21.8156Z" fill="#111111"/>
<path d="M33.1984 21.2114C33.2055 21.2224 33.1721 21.2556 33.1242 21.2857C33.0763 21.3161 33.0316 21.3317 33.0246 21.3204C33.0178 21.3094 33.0508 21.2762 33.099 21.2461C33.1469 21.216 33.1916 21.2001 33.1984 21.2114Z" fill="#111111"/>
<path d="M33.3188 21.6245C33.3053 21.627 33.2851 21.5598 33.2322 21.4961C33.1804 21.4314 33.118 21.3985 33.123 21.3858C33.1258 21.3734 33.2074 21.3904 33.2687 21.4661C33.3308 21.5414 33.3315 21.6242 33.3188 21.6245Z" fill="#111111"/>
<path d="M33.5535 21.626C33.5404 21.6203 33.6149 21.4523 33.6422 21.2309C33.6717 21.0098 33.6404 20.8287 33.6546 20.8262C33.666 20.8223 33.7195 21.0066 33.689 21.2369C33.6607 21.4672 33.5635 21.6324 33.5535 21.626Z" fill="#111111"/>
<path d="M32.7772 20.3275C32.7832 20.3299 32.7765 20.3628 32.758 20.4138C32.7392 20.464 32.7084 20.5347 32.6509 20.5991C32.5931 20.6642 32.5175 20.6996 32.4604 20.7059C32.403 20.713 32.3693 20.696 32.371 20.6911C32.3725 20.6837 32.4054 20.6876 32.4537 20.6734C32.5019 20.6596 32.5644 20.6249 32.6158 20.5676C32.6672 20.51 32.7013 20.4456 32.7275 20.3996C32.7531 20.3533 32.7712 20.3246 32.7772 20.3275Z" fill="#111111"/>
<path d="M33.177 20.748C33.1688 20.7373 33.188 20.7098 33.2085 20.6765C33.2295 20.6436 33.2458 20.6142 33.2589 20.6167C33.2713 20.6185 33.2745 20.6599 33.2486 20.7013C33.2231 20.7426 33.1841 20.7586 33.177 20.748Z" fill="#111111"/>
<path d="M32.7553 20.1558L33.4807 20.1215L34.3054 20.3553L35.3337 21.2307C35.3337 21.2307 34.5487 21.8119 34.2941 21.5579C34.039 21.304 33.7432 20.7419 33.7432 20.7419L33.4506 20.6188C33.4506 20.6188 32.4879 20.617 32.7553 20.1558Z" fill="#C7A654"/>
<path d="M34.8587 20.8261C34.8576 20.8276 34.843 20.8177 34.8168 20.7971C34.7866 20.7731 34.7494 20.7434 34.704 20.7069C34.6018 20.6224 34.4631 20.5078 34.2943 20.3681L34.3007 20.3716C34.0669 20.3069 33.7856 20.2291 33.4746 20.1431L33.4817 20.1438C33.2564 20.1548 33.0113 20.1668 32.7563 20.1795L32.7754 20.1675L32.7701 20.1785C32.7265 20.2535 32.7155 20.3433 32.7676 20.4056C32.818 20.4682 32.8996 20.5028 32.9773 20.5287C33.1365 20.5775 33.3 20.5934 33.4504 20.5976L33.4551 20.598L33.4586 20.5994C33.5608 20.6429 33.6583 20.6847 33.7505 20.7239L33.7569 20.7267L33.7601 20.7331C33.8995 20.9959 34.0311 21.2053 34.1301 21.3451C34.179 21.4155 34.2216 21.4674 34.25 21.5032C34.2798 21.5375 34.2954 21.5566 34.2939 21.558C34.2925 21.5594 34.2744 21.5431 34.2415 21.511C34.2099 21.4774 34.1641 21.4271 34.1123 21.3581C34.007 21.2209 33.8701 21.0143 33.7257 20.7508L33.7353 20.7596C33.6427 20.7214 33.5448 20.6808 33.4423 20.6383L33.4504 20.6401C33.2954 20.6369 33.1308 20.6228 32.9634 20.5725C32.8815 20.5449 32.7935 20.511 32.7304 20.4346C32.6999 20.3964 32.6825 20.3447 32.6857 20.2945C32.6882 20.245 32.7048 20.1972 32.7282 20.1562L32.7346 20.1442L32.7403 20.1328L32.7541 20.1321C33.0092 20.1205 33.2543 20.1095 33.4795 20.0992H33.4831L33.4866 20.1C33.797 20.1902 34.0772 20.2712 34.3099 20.3387L34.3138 20.3398L34.3163 20.3423C34.4812 20.4866 34.6164 20.6054 34.7164 20.6928C34.7593 20.7317 34.7948 20.7639 34.8232 20.7897C34.8473 20.8124 34.8597 20.8251 34.8587 20.8261Z" fill="#111111"/>
<path d="M43.2966 21.1339L43.2859 21.2334L43.2858 21.2333L43.2856 21.2333L43.2848 21.2332L43.2819 21.2329L43.2712 21.2317C43.262 21.2306 43.2488 21.2289 43.232 21.2266C43.1986 21.2221 43.1513 21.2151 43.0953 21.2053C42.9837 21.1857 42.8354 21.1544 42.6923 21.1077C42.5519 21.0618 42.4045 20.9974 42.3048 20.9058C42.2539 20.859 42.2109 20.801 42.1913 20.7302C42.1859 20.7105 42.1825 20.6904 42.1811 20.6702C42.1629 20.6738 42.1431 20.6778 42.1217 20.6822C41.9942 20.7086 41.8108 20.7507 41.5883 20.813C41.144 20.9374 40.5453 21.1424 39.9256 21.4643C38.8479 22.1638 38.1114 23.0233 37.6441 23.7087C37.4102 24.0517 37.2441 24.3506 37.1366 24.5633C37.0829 24.6696 37.0439 24.7543 37.0184 24.8122C37.0057 24.8411 36.9964 24.8632 36.9903 24.878L36.9835 24.8946L36.982 24.8985L36.9816 24.8994L36.9816 24.8995L36.9816 24.8995L36.9816 24.8996L36.9688 24.9325L36.9381 24.9502L36.9381 24.9502L36.9381 24.9502L36.938 24.9502L36.9374 24.9506L36.9352 24.9519L36.9259 24.9572L36.8898 24.9785C36.8582 24.9973 36.8122 25.0251 36.7547 25.0607C36.6398 25.1319 36.4795 25.2344 36.2981 25.3595C35.9341 25.6105 35.4898 25.9493 35.1566 26.3061L35.1269 26.3378H35.0835C34.8086 26.3378 34.6522 26.3481 34.5654 26.3722C34.5235 26.3838 34.5109 26.3953 34.5079 26.3988L34.5077 26.3989C34.5066 26.4002 34.5025 26.4049 34.5025 26.4255C34.5025 26.5591 34.5029 26.6602 34.5665 26.8057C34.6321 26.9558 34.7674 27.1575 35.0524 27.4755C35.0755 27.4959 35.1117 27.5175 35.1622 27.5412C35.2038 27.5607 35.2491 27.579 35.2978 27.5987C35.3103 27.6037 35.323 27.6089 35.3358 27.6141C35.397 27.6391 35.4623 27.6667 35.52 27.699C35.5768 27.7307 35.635 27.7716 35.6752 27.8269M43.2966 21.1339L35.5943 27.8857M43.2966 21.1339L43.286 21.2334L43.2978 21.2346L43.3096 21.2331L44.69 21.0509M43.2966 21.1339L44.6799 20.9514M35.6752 27.8269L35.5943 27.8857M35.6752 27.8269C35.6752 27.8269 35.6752 27.8269 35.6752 27.8269L35.5943 27.8857M35.6752 27.8269C35.7308 27.9033 35.8181 27.9769 35.9398 28.0616C36.0112 28.1113 36.0887 28.1611 36.1744 28.2162C36.2368 28.2563 36.3035 28.2992 36.3753 28.3468C36.71 28.5687 37.1153 28.8687 37.5208 29.359L37.5251 29.3642L37.525 29.3643C37.7791 29.7176 38.0616 30.0634 38.3021 30.344C38.5971 30.6882 39.0935 30.7676 39.4966 30.5484L39.5068 30.5428L39.507 30.5435C39.8559 30.403 40.1388 30.0934 40.4501 29.7444C40.4575 29.736 40.465 29.7276 40.4725 29.7192C40.7671 29.3887 41.0861 29.0307 41.4991 28.8132M35.5943 27.8857C35.6985 28.0291 35.8856 28.1494 36.123 28.302C36.4852 28.5349 36.9642 28.8429 37.4438 29.4227C37.7002 29.7791 37.9846 30.1273 38.2261 30.409C38.5536 30.7911 39.1023 30.8767 39.5444 30.6362C39.9261 30.4825 40.2284 30.1433 40.5421 29.7914C40.8442 29.4526 41.1567 29.102 41.5606 28.8939M41.4991 28.8132L41.4874 28.8258L41.5606 28.8939M41.4991 28.8132C41.5043 28.8104 41.5095 28.8077 41.5148 28.805L41.5606 28.8939M41.4991 28.8132L43.949 26.1805M41.5606 28.8939L44.0322 26.2378M44.0322 26.2378L43.9425 26.1937L43.949 26.1805M44.0322 26.2378L44.786 24.7034M44.0322 26.2378L43.959 26.1697L43.949 26.1805M43.949 26.1805L44.6875 24.677M44.786 24.7034L44.6862 24.6967L44.6875 24.677M44.786 24.7034L45.0301 21.0267L44.9294 21.0339M44.786 24.7034L44.6962 24.6593L44.6875 24.677M44.6875 24.677L44.9294 21.0339M44.9294 21.0339L44.9361 20.9331L44.6799 20.9514M44.9294 21.0339L44.69 21.0509M44.69 21.0509L44.693 21.0505L44.6799 20.9514M44.69 21.0509L44.6871 21.0511L44.6799 20.9514" fill="#00ED7B" stroke="black" stroke-width="0.2"/>
<path d="M43.6353 21.5402L44.7732 21.0383C44.7732 21.0383 45.2524 20.5746 45.6837 20.2633C45.6837 20.2633 44.2649 22.0263 45.511 22.6134C46.7571 23.2006 47.762 21.651 47.762 21.651C47.762 21.651 47.5119 22.0344 47.3661 22.3354C47.2207 22.6368 46.4811 23.595 46.4811 23.595C46.4811 23.595 46.4602 24.0701 46.0349 24.555C45.6092 25.0404 45.1318 25.8419 44.7526 26.0474C44.3731 26.2533 43.5242 26.6303 43.5242 26.6303C43.5242 26.6303 43.2447 25.3025 43.3692 23.8501C43.4937 22.397 43.6353 21.5402 43.6353 21.5402Z" fill="#00ED7B"/>
<path d="M44.7942 20.9863C44.7942 20.9863 45.2734 20.5226 45.7048 20.2113C45.7048 20.2113 44.2859 21.9743 45.532 22.5614C46.7781 23.1486 47.783 21.599 47.783 21.599C47.783 21.599 47.533 21.9824 47.3872 22.2834C47.2417 22.5848 46.5022 23.543 46.5022 23.543C46.5022 23.543 46.4812 24.0181 46.0559 24.503C45.6303 24.9883 45.1528 25.7899 44.7737 25.9954C44.3941 26.2013 43.6648 26.5614 43.6648 26.5614" stroke="black" stroke-width="0.2"/>
<path d="M45.4726 23.0321L45.4725 23.0321C45.4513 23.0533 45.4268 23.0592 45.4128 23.0608C45.399 23.0624 45.3879 23.0607 45.3822 23.0596C45.3708 23.0574 45.3623 23.0537 45.3591 23.0523C45.3516 23.049 45.3453 23.0452 45.342 23.0432C45.3343 23.0384 45.3255 23.0323 45.3166 23.0259C45.2984 23.0126 45.2735 22.9933 45.243 22.9687L45.2422 22.9681L45.2422 22.9681C45.181 22.9177 45.0917 22.8411 44.996 22.7303L44.9959 22.7301C44.8984 22.6167 44.7974 22.4537 44.7604 22.2486L44.7604 22.2485C44.7245 22.0474 44.7475 21.8281 44.7966 21.6174L44.7966 21.6174C44.8966 21.1893 45.0983 20.8435 45.2506 20.6121L45.251 20.6116L45.251 20.6116C45.3286 20.4952 45.3968 20.4043 45.4447 20.3428L45.4455 20.3417L45.4455 20.3417C45.4697 20.3115 45.4896 20.2874 45.5041 20.2707C45.5112 20.2626 45.5183 20.2547 45.5246 20.2484C45.5273 20.2457 45.5327 20.2404 45.5394 20.2354C45.5422 20.2333 45.5501 20.2274 45.5614 20.2226C45.567 20.2202 45.5783 20.2159 45.5933 20.2147C45.6089 20.2134 45.6348 20.2152 45.6596 20.233L45.6615 20.2343L45.6615 20.2343C45.7043 20.2663 45.7022 20.313 45.7017 20.3212C45.7009 20.3349 45.6974 20.3454 45.6961 20.3491C45.693 20.3581 45.6892 20.3654 45.6874 20.3689C45.683 20.3772 45.6773 20.3865 45.6717 20.3954C45.66 20.4138 45.6427 20.4395 45.6215 20.4707C45.6132 20.4832 45.6042 20.4966 45.5947 20.5109C45.5548 20.5706 45.5044 20.646 45.4476 20.7376C45.3075 20.9655 45.1277 21.2866 45.0375 21.6735L44.9914 21.6627C44.9914 21.6628 44.9914 21.6628 44.9914 21.6629L45.4726 23.0321ZM45.4726 23.0321L45.4742 23.0305C45.5006 23.0028 45.5039 22.9697 45.5016 22.949C45.4995 22.9309 45.493 22.9176 45.4901 22.9121C45.484 22.9004 45.4766 22.8918 45.4738 22.8886C45.4668 22.8805 45.458 22.872 45.4508 22.8652C45.4439 22.8586 45.4356 22.8508 45.4266 22.8425L45.4227 22.8389C45.412 22.8289 45.3998 22.8176 45.3864 22.8049C45.333 22.7542 45.2582 22.6799 45.175 22.5803L45.4726 23.0321Z" fill="black" stroke="black" stroke-width="0.2"/>
<path d="M45.2322 24.3322C45.2329 24.3339 45.2177 24.341 45.1882 24.3534C45.1588 24.3651 45.1155 24.3838 45.0584 24.4043C44.9438 24.4411 44.7739 24.4967 44.5537 24.5002C44.4448 24.4984 44.3213 24.4818 44.2046 24.4206C44.0883 24.3605 43.9854 24.2547 43.9219 24.1231C43.7932 23.8575 43.7793 23.5299 43.8059 23.2024C43.8371 22.8731 43.8981 22.5625 43.9978 22.2919C44.0996 22.0224 44.2365 21.8009 44.3575 21.6223C44.4799 21.4437 44.5884 21.3068 44.6636 21.2127C44.6994 21.1695 44.7289 21.1342 44.7523 21.1055C44.7729 21.0815 44.7846 21.0691 44.786 21.0701C44.7871 21.0712 44.7782 21.0853 44.7597 21.1112C44.7381 21.1412 44.7112 21.1784 44.6785 21.2236C44.6076 21.3213 44.5033 21.461 44.3852 21.6407C44.2688 21.8207 44.1362 22.0415 44.0386 22.3068C43.9436 22.572 43.8836 22.8816 43.8527 23.2063C43.8265 23.5296 43.8403 23.8504 43.9613 24.1037C44.0202 24.2296 44.1149 24.3283 44.2231 24.3863C44.3313 24.445 44.4487 24.4631 44.554 24.4666C44.7676 24.468 44.9375 24.4181 45.0527 24.387C45.1059 24.3697 45.1496 24.3559 45.185 24.3446C45.2156 24.335 45.2315 24.3308 45.2322 24.3322Z" fill="#17282F"/>
<path d="M44.8569 20.9419L44.8567 20.942C44.8867 20.9908 44.8629 21.0364 44.8602 21.0417C44.8601 21.0418 44.8601 21.0419 44.86 21.0419C44.854 21.0537 44.8468 21.0619 44.844 21.0652C44.8373 21.0727 44.8298 21.0795 44.8247 21.0839C44.8134 21.0936 44.7978 21.1059 44.7806 21.1194C44.7733 21.1251 44.7654 21.1312 44.757 21.1377C44.724 21.1634 44.6825 21.1957 44.6341 21.2349C44.5138 21.3325 44.3545 21.4748 44.1978 21.6507C44.0414 21.8269 43.9184 22.0017 43.8359 22.1324L43.8357 22.1327C43.8024 22.1852 43.7752 22.23 43.7536 22.2656C43.748 22.2748 43.7428 22.2834 43.738 22.2914C43.7266 22.31 43.7161 22.327 43.7078 22.3392C43.704 22.3447 43.6982 22.353 43.6914 22.3605C43.6885 22.3637 43.6811 22.3718 43.6701 22.3792L43.6699 22.3793C43.6649 22.3827 43.622 22.4117 43.5699 22.387L43.568 22.3861L43.568 22.3861C43.5325 22.3684 43.5202 22.3375 43.5164 22.3244C43.5122 22.3103 43.5121 22.2986 43.5122 22.2935C43.5124 22.2824 43.5143 22.2735 43.5151 22.2698C43.5171 22.2609 43.52 22.2521 43.5224 22.2453C43.5276 22.2305 43.5353 22.2117 43.5451 22.1899C43.5648 22.146 43.5949 22.0852 43.6353 22.013L44.8569 20.9419ZM44.8569 20.9419L44.8536 20.9372C44.8315 20.9053 44.8 20.8973 44.787 20.8952C44.7729 20.8929 44.7615 20.8942 44.7565 20.8949C44.7457 20.8963 44.7371 20.8992 44.7335 20.9005C44.7249 20.9035 44.7165 20.9074 44.7099 20.9106C44.6958 20.9175 44.6779 20.9274 44.6574 20.9396C44.616 20.9644 44.5591 21.0014 44.4921 21.0501M44.8569 20.9419L44.4921 21.0501M44.4921 21.0501C44.3566 21.1481 44.1812 21.2976 44.0129 21.4866L44.0128 21.4867C43.8449 21.676 43.7166 21.8673 43.6353 22.0129L44.4921 21.0501ZM43.649 22.2034C43.6008 22.1844 43.5625 22.2105 43.5588 22.213C43.5587 22.2131 43.5587 22.2131 43.5586 22.2131C43.5493 22.2194 43.5437 22.2256 43.5427 22.2267L43.5427 22.2268C43.5413 22.2283 43.5406 22.2293 43.5406 22.2293C43.5406 22.2293 43.5412 22.2285 43.5426 22.2265C43.5476 22.2191 43.5554 22.2066 43.5672 22.1872C43.5718 22.1798 43.5768 22.1715 43.5822 22.1626C43.6033 22.1277 43.631 22.0821 43.6645 22.0293L43.649 22.2034ZM43.649 22.2034C43.6217 22.261 43.6096 22.2951 43.6126 22.2966L43.649 22.2034ZM43.6669 22.0255C43.6661 22.0267 43.6653 22.028 43.6645 22.0292L43.723 22.0611L43.6669 22.0255Z" fill="black" stroke="black" stroke-width="0.2"/>
<path d="M43.7275 23.96C43.7268 23.96 43.7261 23.96 43.7254 23.96C43.6349 23.9579 43.6076 23.8369 43.6104 23.7467C43.6409 22.7541 44.1184 21.6732 44.8445 20.994C44.8246 21.0209 44.8044 21.0478 44.7838 21.075C44.7856 21.0722 44.7863 21.0704 44.7859 21.0701H44.7856C44.7835 21.0701 44.7721 21.0821 44.7522 21.1054C44.7288 21.1341 44.6994 21.1695 44.6636 21.2126C44.5884 21.3067 44.4798 21.4436 44.3575 21.6222C44.2365 21.8009 44.0996 22.0223 43.9978 22.2918C43.8981 22.5624 43.8371 22.873 43.8059 23.2023C43.7874 23.4298 43.7885 23.6572 43.8339 23.8638C43.8204 23.914 43.7789 23.96 43.7275 23.96Z" fill="#00A656"/>
<path d="M43.7362 23.8855L43.9309 23.8883L43.932 23.8841L43.933 23.8799L43.9331 23.8799L43.934 23.8756C43.9432 23.8309 43.9386 23.7896 43.9338 23.7591C43.9317 23.7451 43.9297 23.7342 43.928 23.7249C43.9253 23.7099 43.9233 23.6987 43.9223 23.6847L43.9223 23.6846C43.8893 23.2675 43.9809 22.7669 44.1297 22.3126C44.2509 21.9435 44.5225 21.5855 44.7823 21.2431C44.8096 21.207 44.8368 21.1711 44.8637 21.1354L44.864 21.1357L44.8686 21.1284C44.8707 21.1249 44.8745 21.1186 44.8778 21.1108C44.8792 21.1074 44.8827 21.0989 44.8846 21.0877C44.8856 21.0821 44.8869 21.0713 44.8853 21.058C44.8836 21.0449 44.8778 21.0206 44.8566 20.9995L44.8273 20.9703H44.786H44.7856C44.7644 20.9703 44.7489 20.9771 44.7435 20.9795C44.7365 20.9827 44.7312 20.9861 44.7283 20.9881C44.7225 20.992 44.718 20.9959 44.7157 20.9979C44.7108 21.0023 44.7063 21.007 44.7028 21.0106C44.6955 21.0184 44.6864 21.0288 44.6761 21.0409L44.6761 21.0409L44.6748 21.0424C44.6551 21.0665 44.6311 21.0954 44.6021 21.1303C44.5971 21.1364 44.592 21.1426 44.5866 21.149L44.5866 21.149L44.5855 21.1504C44.5099 21.245 44.3995 21.3842 44.275 21.566L44.275 21.566L44.2747 21.5664C44.1519 21.7477 44.0101 21.9766 43.9042 22.2567L43.9042 22.2567L43.904 22.2575C43.8005 22.5385 43.7381 22.858 43.7063 23.1931L43.7063 23.1931L43.7062 23.1945C43.6874 23.4266 43.6878 23.6652 43.7362 23.8855Z" fill="black" stroke="black" stroke-width="0.2"/>
<path d="M45.0439 23.0867C44.952 23.0867 44.858 22.999 44.8059 22.9117C44.5686 22.5148 44.576 22.0072 44.7325 21.5725C44.8889 21.1374 45.1787 20.7638 45.4876 20.4193L45.482 20.4582C45.4405 20.5134 45.3897 20.5834 45.3341 20.6669C45.1844 20.8944 44.99 21.2286 44.8939 21.64C44.8463 21.8438 44.8261 22.0482 44.8587 22.2307C44.8917 22.4136 44.9822 22.5608 45.0716 22.6648C45.0822 22.6771 45.0929 22.6892 45.1035 22.7005C45.1333 22.7422 45.1606 22.785 45.1773 22.8331C45.206 22.9159 45.1904 23.0238 45.1141 23.0676C45.0914 23.0811 45.0677 23.0867 45.0439 23.0867ZM45.3451 20.7133C45.3507 20.7037 45.3568 20.6942 45.3624 20.685C45.4036 20.6185 45.4415 20.5601 45.4749 20.5102L45.4724 20.5265C45.4298 20.5884 45.3869 20.6506 45.3451 20.7133Z" fill="#00A656"/>
<path d="M45.0308 22.7689L45.1848 22.642C45.1745 22.6276 45.1652 22.6152 45.1565 22.6035C45.144 22.5867 45.1326 22.5712 45.1204 22.5535L45.1203 22.5534C44.9281 22.275 44.9164 21.8917 45.0232 21.5479C45.1088 21.2727 45.2598 21.0208 45.4283 20.7687L45.4284 20.7688L45.4311 20.7643C45.4347 20.7582 45.4382 20.7526 45.4422 20.7461C45.4439 20.7434 45.4457 20.7405 45.4476 20.7374C45.4881 20.6721 45.5253 20.6147 45.5581 20.5657L45.571 20.5465L45.5741 20.5236L45.5812 20.4716L45.6331 20.091L45.4022 20.398C45.3598 20.4544 45.3079 20.526 45.251 20.6113L45.251 20.6113L45.2506 20.6119C45.0983 20.8433 44.8966 21.189 44.7966 21.6172L44.7966 21.6172C44.7475 21.8278 44.7245 22.0472 44.7604 22.2482L44.7604 22.2484C44.7974 22.4535 44.8984 22.6164 44.9959 22.7298C45.0071 22.7429 45.0187 22.7561 45.0308 22.7689Z" fill="black" stroke="black" stroke-width="0.2"/>
<path d="M38.0227 27.1039C37.8692 27.1283 37.7049 27.1473 37.5339 27.1478L37.534 27.1706C37.1877 27.1723 36.8657 27.1116 36.5933 27.0324L36.5931 27.0324C36.3209 26.9526 36.091 26.8546 35.9116 26.7587C35.7345 26.6645 35.6022 26.5752 35.5164 26.5061C35.4815 26.4805 35.4523 26.4542 35.4348 26.4383C35.4296 26.4336 35.4254 26.4299 35.4224 26.4273L35.4213 26.4264L35.4213 26.4264C35.411 26.4173 35.4023 26.4094 35.396 26.4034C35.3931 26.4007 35.3891 26.3967 35.3853 26.3926L35.3852 26.3925C35.3839 26.391 35.3791 26.3857 35.3745 26.3785C35.3744 26.3784 35.3744 26.3784 35.3744 26.3783C35.3727 26.3757 35.3653 26.3644 35.3613 26.3481C35.3591 26.3397 35.3554 26.3204 35.3619 26.2971C35.3697 26.2689 35.3894 26.2456 35.4156 26.2332C35.4369 26.2232 35.4558 26.2233 35.4645 26.2238C35.4743 26.2244 35.4819 26.2263 35.486 26.2275C35.4943 26.2298 35.5005 26.2328 35.5029 26.234C35.5085 26.2366 35.5128 26.2394 35.5146 26.2405C35.5189 26.2432 35.5232 26.2463 35.5265 26.2487C35.5333 26.2537 35.5422 26.2605 35.5526 26.2686C35.5628 26.2761 35.5743 26.2855 35.5848 26.2939C35.588 26.2966 35.5911 26.2991 35.5941 26.3015C35.6085 26.3131 35.6243 26.3254 35.643 26.3382L35.6468 26.3409L35.6468 26.3409C35.7242 26.3996 35.8483 26.4807 36.0182 26.5686L36.0183 26.5687C36.1859 26.6558 36.4027 26.7465 36.6602 26.8209C36.9166 26.8943 37.2157 26.9491 37.5325 26.9478L37.5326 26.9478C37.6897 26.9474 37.8432 26.9299 37.9914 26.9064L37.9915 26.9063C38.1378 26.8833 38.2761 26.8507 38.4053 26.8142L38.4054 26.8141C38.664 26.7412 38.8818 26.652 39.0516 26.5661C39.2229 26.4794 39.3479 26.3994 39.4243 26.3413L39.4285 26.3381L39.4285 26.3382C39.4472 26.3255 39.4628 26.3133 39.4772 26.3018C39.4801 26.2994 39.4833 26.2968 39.4866 26.2941C39.4968 26.2858 39.5082 26.2765 39.5184 26.269C39.5288 26.2608 39.5375 26.254 39.5442 26.2491C39.5475 26.2467 39.5514 26.2438 39.5552 26.2413C39.5568 26.2403 39.5606 26.2378 39.5655 26.2353C39.5674 26.2343 39.5733 26.2312 39.5814 26.2286C39.5852 26.2273 39.5938 26.2247 39.605 26.2239C39.6134 26.2233 39.6401 26.2221 39.6674 26.24L39.557 26.5046C39.5563 26.5052 39.5556 26.5058 39.5548 26.5064C39.5541 26.5069 39.5533 26.5075 39.5525 26.5081L39.5466 26.4998C39.5455 26.5006 39.5444 26.5013 39.5433 26.502M38.0227 27.1039C38.0227 27.1039 38.0226 27.1039 38.0226 27.1039L38.0106 27.0276C38.0106 27.0276 38.0106 27.0276 38.0106 27.0276L38.0228 27.1039C38.0227 27.1039 38.0227 27.1039 38.0227 27.1039ZM38.0227 27.1039C38.0239 27.1037 38.0251 27.1035 38.0264 27.1033M38.0264 27.1033L38.03 27.1258C38.1876 27.1006 38.3351 27.0654 38.4715 27.0261C38.4715 27.0261 38.4715 27.0261 38.4715 27.0261L38.4654 27.005M38.0264 27.1033C38.0264 27.1033 38.0264 27.1033 38.0264 27.1033L38.0142 27.027L38.0264 27.1033ZM38.4654 27.005C38.7341 26.9289 38.962 26.8356 39.1419 26.7446C39.1439 26.7436 39.1459 26.7425 39.1479 26.7415M38.4654 27.005L38.4439 26.9301L38.4654 27.005C38.4654 27.005 38.4654 27.005 38.4654 27.005ZM39.1479 26.7415L39.1561 26.7573C39.1562 26.7573 39.1562 26.7573 39.1562 26.7573L39.148 26.7415M39.1479 26.7415C39.148 26.7415 39.148 26.7415 39.148 26.7415M39.1479 26.7415L39.11 26.6686L39.148 26.7415M39.148 26.7415C39.3233 26.6524 39.4562 26.568 39.5433 26.502M39.5433 26.502C39.5426 26.5025 39.5419 26.503 39.5412 26.5035L39.4908 26.4296L39.4939 26.427C39.493 26.4278 39.4921 26.4285 39.4912 26.4292L39.5454 26.5005C39.5447 26.501 39.544 26.5015 39.5433 26.502Z" fill="black" stroke="black" stroke-width="0.2"/>
<path d="M38.9174 26.0819C38.9446 26.0648 38.9678 26.0485 38.9833 26.0376C38.9879 26.0344 38.9918 26.0316 38.995 26.0295L38.995 26.0295L38.997 26.0281C39.0054 26.022 39.0136 26.016 39.0199 26.0109C39.0226 26.0087 39.0277 26.0046 39.0328 25.9994C39.0347 25.9975 39.041 25.9911 39.047 25.9817C39.0498 25.9773 39.0562 25.9667 39.06 25.9516C39.0637 25.9366 39.0674 25.9053 39.0476 25.874C39.0301 25.8461 39.0042 25.8344 38.9875 25.8302C38.9715 25.826 38.9582 25.8269 38.9523 25.8275C38.94 25.8287 38.9306 25.832 38.9278 25.833C38.9204 25.8356 38.914 25.8387 38.9109 25.8402C38.9035 25.8439 38.8945 25.8488 38.8855 25.8539C38.8741 25.8603 38.8592 25.8689 38.8417 25.8791C38.8309 25.8852 38.8192 25.892 38.8067 25.8992C38.741 25.937 38.6437 25.9898 38.5202 26.0479C38.3969 26.1059 38.2481 26.1686 38.0775 26.2198L38.0774 26.2198C37.9063 26.2714 37.7168 26.3132 37.5188 26.3132C37.1128 26.3111 36.7558 26.1823 36.5118 26.0684C36.3892 26.0103 36.2945 25.9564 36.2314 25.917L36.2314 25.917L36.231 25.9168C36.215 25.9068 36.1975 25.8959 36.1826 25.8866C36.171 25.8793 36.161 25.873 36.1546 25.8691C36.1459 25.8637 36.137 25.8584 36.1297 25.8544C36.1266 25.8527 36.1202 25.8492 36.1126 25.8463C36.1097 25.8451 36.1003 25.8416 36.088 25.8399C36.0819 25.8391 36.0693 25.8379 36.0538 25.8412C36.0372 25.8447 36.0116 25.8548 35.9928 25.881L35.9928 25.881L35.991 25.8836C35.9701 25.9149 35.9733 25.9464 35.9764 25.9609C35.9796 25.9755 35.9854 25.9859 35.988 25.9904C35.9935 25.9998 35.9994 26.0063 36.0013 26.0084C36.0062 26.0138 36.0111 26.0182 36.0138 26.0205C36.02 26.026 36.0279 26.0323 36.0364 26.0389L36.0364 26.0389L36.0383 26.0404C36.0411 26.0425 36.0448 26.0453 36.0491 26.0486C36.064 26.0601 36.0873 26.0779 36.1146 26.0961C36.1831 26.144 36.2842 26.2059 36.4134 26.2709L36.4134 26.2709L36.4141 26.2712C36.6719 26.3983 37.0627 26.5463 37.5183 26.5489V26.5489L37.5191 26.5489C37.7496 26.5486 37.9631 26.4993 38.1456 26.4425L38.1456 26.4425C38.3301 26.385 38.4891 26.3148 38.6183 26.2505L38.6186 26.2504C38.7468 26.1861 38.8481 26.1268 38.9174 26.0819ZM38.9174 26.0819C38.9171 26.0821 38.9169 26.0822 38.9167 26.0823L38.9095 26.0708L38.8819 25.9858C38.8991 26.0097 38.9225 26.02 38.9379 26.0239C38.9537 26.028 38.9666 26.0271 38.9722 26.0265C38.9802 26.0257 38.9867 26.024 38.9905 26.0229C38.9914 26.0226 38.9921 26.0224 38.9927 26.0222C38.993 26.022 38.9933 26.0219 38.9935 26.0219L38.9936 26.0218C38.9975 26.0205 39 26.0193 39 26.0193C39 26.0193 38.9999 26.0193 38.9996 26.0195C38.9984 26.0201 38.9963 26.0211 38.9932 26.0229C38.9926 26.0232 38.9919 26.0236 38.9912 26.0239C38.9891 26.0251 38.9866 26.0265 38.9837 26.0281C38.9731 26.0341 38.9597 26.0418 38.9431 26.0514C38.9334 26.057 38.9226 26.0632 38.9107 26.0701L38.918 26.0815C38.9178 26.0816 38.9176 26.0818 38.9174 26.0819Z" fill="black" stroke="black" stroke-width="0.2"/>
<path d="M43.9609 26.1565L43.9609 26.1565C43.9374 26.1556 43.912 26.1547 43.8835 26.1537C43.8576 26.1527 43.8292 26.1517 43.7976 26.1505L43.7965 26.1505V26.1505C43.7611 26.1488 43.723 26.147 43.6818 26.1453C43.6407 26.1453 43.5964 26.145 43.5505 26.1446L43.5428 26.1446L43.9609 26.1565ZM43.9609 26.1565L43.962 26.1566C43.9813 26.1571 43.9969 26.1573 44.0084 26.1572C44.0138 26.1572 44.0197 26.157 44.0251 26.1567C44.0273 26.1565 44.0322 26.1562 44.0379 26.1552C44.0402 26.1549 44.0469 26.1537 44.0549 26.1509C44.0588 26.1496 44.0671 26.1464 44.0766 26.1403C44.0839 26.1356 44.1065 26.1198 44.1172 26.088C44.1308 26.0471 44.1151 26.0128 44.1016 25.9952C44.09 25.9801 44.0771 25.9723 44.0726 25.9697C44.0624 25.9637 44.0533 25.9609 44.051 25.9602L44.0509 25.9602C44.0445 25.9582 44.039 25.9572 44.0369 25.9568C44.0316 25.9559 44.0256 25.9551 44.0204 25.9544C44.0092 25.9531 43.9938 25.9515 43.9749 25.9499L43.9749 25.9499L43.9743 25.9499C43.9299 25.9463 43.8762 25.9421 43.8111 25.9371L43.8111 25.9371L43.8103 25.937C43.7744 25.9346 43.7352 25.9318 43.6932 25.9286L43.6933 25.9285L43.6881 25.9283C43.6788 25.9281 43.6694 25.9279 43.6599 25.9277C43.6241 25.9268 43.5867 25.9259 43.5474 25.9248L43.547 25.9248C43.5364 25.9245 43.5255 25.9243 43.5144 25.924C43.4218 25.9216 43.3146 25.9189 43.1979 25.923M43.9609 26.1565L43.1979 25.923M43.1979 25.923C43.1441 25.9239 43.0885 25.9251 43.0313 25.9262C43.0203 25.9265 43.0092 25.9267 42.998 25.9269L42.998 25.9269L42.9945 25.9271L42.7791 25.9394C42.6705 25.944 42.5567 25.9555 42.442 25.967C42.395 25.9717 42.3478 25.9764 42.3007 25.9807L42.3007 25.9807L42.2979 25.981C41.9644 26.021 41.6025 26.0795 41.2353 26.1613L41.2353 26.1613L41.2346 26.1615C40.8682 26.2459 40.5341 26.3459 40.2413 26.4474L40.2413 26.4474L40.2384 26.4485C40.2021 26.4624 40.1653 26.4761 40.1285 26.4898C40.0271 26.5275 39.9259 26.5652 39.8364 26.6057L39.6632 26.6803L39.6632 26.6802L39.6585 26.6825C39.6295 26.6967 39.6026 26.7098 39.5762 26.7227C39.553 26.7341 39.5302 26.7452 39.5064 26.7569C39.4119 26.8005 39.3329 26.8455 39.2658 26.8836C39.2594 26.8873 39.253 26.8909 39.2468 26.8944C39.2112 26.9142 39.1781 26.933 39.1476 26.9503L39.1454 26.9515L39.1453 26.9514L39.1403 26.9546C39.1124 26.9727 39.0865 26.9898 39.0631 27.0053L39.0609 27.0067C39.0609 27.0067 39.0609 27.0067 39.0609 27.0067C39.0177 27.0352 38.9818 27.0592 38.9522 27.0793L38.9522 27.0793L38.9517 27.0797C38.9396 27.088 38.9287 27.0957 38.9206 27.102C38.9172 27.1046 38.9107 27.1097 38.9045 27.1159L38.9043 27.1161C38.9022 27.1183 38.8931 27.1274 38.8859 27.1413C38.8824 27.1478 38.8732 27.1667 38.8743 27.1928C38.8759 27.227 38.8946 27.2573 38.9231 27.2743L38.9229 27.2746L38.9298 27.278C38.9559 27.291 38.9797 27.2886 38.9844 27.2881L38.9847 27.2881C38.9929 27.2873 38.9993 27.2856 39.0023 27.2848C39.0087 27.283 39.0138 27.2809 39.0162 27.2799C39.0217 27.2777 39.0272 27.275 39.0315 27.2728C39.0408 27.2681 39.0528 27.2616 39.0668 27.2537L39.0668 27.2537L39.0677 27.2532C39.0991 27.235 39.1377 27.2126 39.1836 27.1856L39.175 27.171C39.1973 27.1563 39.2211 27.1406 39.2466 27.1241C39.2484 27.1231 39.2502 27.1221 39.2519 27.1211L39.2614 27.1393C39.2623 27.1388 39.2632 27.1383 39.2641 27.1379M43.1979 25.923L39.0699 27.0204C39.03 27.0439 38.9962 27.0635 38.9681 27.0798C38.9639 27.0821 38.9601 27.0842 38.9568 27.0861C38.9566 27.0862 38.9565 27.0862 38.9563 27.0863C38.9498 27.0899 38.9448 27.0925 38.9414 27.0943C38.9397 27.0952 38.9389 27.0955 38.9389 27.0955C38.9389 27.0955 38.9392 27.0954 38.9398 27.0951L38.9398 27.0951C38.9404 27.0949 38.9438 27.0934 38.9489 27.092C38.9506 27.0916 38.9541 27.0906 38.9588 27.0899C38.9589 27.0898 38.9591 27.0898 38.9593 27.0898C38.961 27.0895 38.9629 27.0893 38.9649 27.0891C38.9669 27.0889 38.9695 27.0887 38.9726 27.0886L39.0003 27.1366L38.9964 27.1443L38.9964 27.1445L38.9755 27.1864C38.9743 27.1876 38.974 27.1883 38.9744 27.1885C38.9758 27.1892 38.9891 27.1826 39.0133 27.1691L39.0471 27.2187L39.0518 27.2257L39.0606 27.2385C39.0603 27.2389 39.0601 27.2392 39.0599 27.2396C39.0597 27.2399 39.0595 27.2402 39.0594 27.2405C39.0535 27.2498 39.0477 27.2556 39.0468 27.2565C39.0467 27.2566 39.0467 27.2566 39.0467 27.2566C39.044 27.2593 39.042 27.261 39.0419 27.261C39.0419 27.261 39.0422 27.2607 39.0429 27.2602C39.046 27.2578 39.0522 27.2534 39.0626 27.2462C39.0628 27.246 39.0631 27.2458 39.0634 27.2456C39.0639 27.2453 39.0644 27.2449 39.065 27.2445C39.0935 27.2251 39.1284 27.2017 39.171 27.1737L39.171 27.1737L39.173 27.1723C39.1736 27.172 39.1742 27.1716 39.1747 27.1712L39.1833 27.1858C39.2086 27.1711 39.2355 27.1551 39.2641 27.1379M39.2641 27.1379C39.2962 27.1212 39.3298 27.1036 39.3658 27.0846L39.2562 27.1187L39.2668 27.1363C39.2659 27.1368 39.265 27.1374 39.2641 27.1379ZM40.3371 26.6641C40.6227 26.5676 40.947 26.4715 41.3015 26.3897C41.6577 26.31 42.0082 26.2526 42.3322 26.2115C42.3844 26.2065 42.4346 26.2012 42.4834 26.196C42.5926 26.1844 42.6946 26.1735 42.7947 26.1685L42.7947 26.1685L42.7964 26.1684L43.0086 26.154L43.2053 26.1477L43.2053 26.1477L43.2064 26.1477C43.316 26.1428 43.4164 26.1436 43.5085 26.1443C43.52 26.1444 43.5315 26.1445 43.5428 26.1446L40.3371 26.6641ZM40.3371 26.6641C40.2939 26.6803 40.2519 26.6955 40.2113 26.7103C40.1158 26.7451 40.0274 26.7772 39.947 26.8127L39.9446 26.8138L39.9446 26.8138C39.9072 26.8291 39.871 26.8442 39.8353 26.859C39.8141 26.8679 39.7931 26.8766 39.7721 26.8853M40.3371 26.6641L39.7721 26.8853M39.7721 26.8853C39.7509 26.8953 39.7297 26.9052 39.7087 26.9151C39.6783 26.9294 39.6485 26.9435 39.6197 26.9569L39.6179 26.9578L39.6179 26.9577C39.5377 26.9932 39.4697 27.0294 39.4053 27.0637C39.392 27.0707 39.3789 27.0777 39.3658 27.0846L39.7721 26.8853ZM43.9596 26.134L43.964 26.0779V26.0779L43.9644 26.0733L43.9657 26.0566C44.0024 26.0577 44.022 26.0573 44.0223 26.0563C44.0224 26.056 44.0215 26.0557 44.0196 26.0553C44.013 26.054 43.9948 26.052 43.9663 26.0495C43.9659 26.0495 43.9655 26.0495 43.9652 26.0494L43.9656 26.0373L43.9682 25.9722C43.9697 25.9712 43.9712 25.9703 43.9727 25.9695C43.9729 25.9694 43.9731 25.9693 43.9732 25.9692C43.9803 25.9652 43.9862 25.963 43.9892 25.962C43.9969 25.9593 44.0031 25.9583 44.0047 25.958L44.01 25.9573L44.0118 25.9571C44.0119 25.9571 44.0119 25.9571 44.0118 25.9571C44.0114 25.9571 44.0098 25.9572 44.0065 25.9572C43.9996 25.9573 43.9889 25.9572 43.9743 25.9568C43.9741 25.9568 43.9739 25.9568 43.9737 25.9568C43.9719 25.9568 43.9701 25.9567 43.9683 25.9567C43.945 25.9558 43.9189 25.9548 43.8901 25.9538C43.8653 25.9529 43.8386 25.9519 43.81 25.9509C43.8098 25.9508 43.8096 25.9508 43.8094 25.9508L43.9596 26.134ZM43.9275 26.0246C43.9378 25.9937 43.9594 25.978 43.9673 25.9728L43.9654 26.0372L43.9651 26.0494C43.9518 26.0484 43.9377 26.0473 43.9228 26.0461C43.9235 26.0392 43.925 26.032 43.9275 26.0246ZM43.9431 26.1172C43.9331 26.1042 43.9219 26.0821 43.9223 26.055C43.9373 26.0556 43.9515 26.0561 43.9649 26.0566C43.9652 26.0566 43.9654 26.0566 43.9657 26.0566L43.9645 26.0706L43.9642 26.0739L43.9591 26.1336C43.9541 26.1295 43.9484 26.1241 43.9431 26.1172ZM39.0823 27.0132C39.0781 27.0156 39.074 27.0181 39.07 27.0204L39.2582 26.9152C39.2268 26.9317 39.1973 26.9472 39.1691 26.9619L39.169 26.9617L39.1638 26.9649C39.1611 26.9665 39.1584 26.9681 39.1557 26.9697C39.1543 26.9705 39.153 26.9713 39.1516 26.9721C39.127 26.9869 39.1042 27.0005 39.0827 27.013L39.0827 27.013L39.0823 27.0132ZM39.2726 26.9077C39.2679 26.9101 39.2633 26.9126 39.2587 26.915L39.518 26.7833C39.4386 26.8193 39.3697 26.856 39.3098 26.8879C39.297 26.8947 39.2846 26.9013 39.2726 26.9076L39.2726 26.9077ZM39.5361 26.7752C39.5305 26.7777 39.525 26.7801 39.5196 26.7826L39.8493 26.6367C39.8183 26.6495 39.7876 26.6622 39.7577 26.6747C39.7359 26.6838 39.7144 26.6927 39.6935 26.7014L39.6934 26.7013L39.6893 26.7032C39.6847 26.7054 39.6802 26.7075 39.6758 26.7096C39.6747 26.7101 39.6736 26.7106 39.6726 26.7111C39.6556 26.719 39.6391 26.7268 39.6228 26.7345C39.5932 26.7485 39.5644 26.762 39.5361 26.7752ZM39.8674 26.6293C39.8618 26.6316 39.8561 26.6339 39.8505 26.6362L41.2712 26.2558C41.2711 26.2558 41.271 26.2558 41.271 26.2558C41.2663 26.2569 41.2617 26.2579 41.257 26.2589C40.9019 26.3407 40.5775 26.4374 40.292 26.5357C40.2916 26.5359 40.2912 26.536 40.2909 26.5361C40.2853 26.5381 40.2797 26.54 40.2741 26.5419C40.2358 26.5565 40.1977 26.5707 40.1602 26.5847C40.0662 26.6197 39.9756 26.6534 39.8936 26.6897L39.8686 26.6288C39.8682 26.6289 39.8678 26.6291 39.8674 26.6293ZM39.0258 27.1027C39.036 27.1089 39.0467 27.1178 39.0556 27.1302C39.0402 27.1405 39.0261 27.15 39.0133 27.1587L39.0031 27.1407L39.0258 27.1027ZM39.0029 27.141L39.0132 27.1588C39.0116 27.1599 39.01 27.1609 39.0085 27.162C38.991 27.174 38.9801 27.182 38.976 27.1859L38.9987 27.1479L38.9988 27.1478L39.0029 27.141ZM39.0177 27.1666C39.0162 27.1674 39.0147 27.1683 39.0133 27.1691L39.045 27.215L39.0491 27.221L39.0608 27.238C39.0615 27.2368 39.0622 27.2356 39.0629 27.2343C39.0661 27.2281 39.0753 27.2095 39.0741 27.1837C39.0735 27.1705 39.0702 27.1555 39.0622 27.1408C39.046 27.1502 39.0312 27.1588 39.0177 27.1666ZM39.019 27.099L39.0005 27.1362L38.9737 27.0886C38.9766 27.0886 38.9798 27.0886 38.9834 27.089C38.9908 27.0896 39.0042 27.0916 39.019 27.099Z" fill="black" stroke="black" stroke-width="0.2"/>
<path d="M44.5428 16.8296C44.2026 16.7641 43.8403 16.7881 43.5223 16.6505C43.3412 16.5719 43.1778 16.4408 42.9834 16.4038C42.8553 16.3775 42.7515 16.3535 42.6476 16.4584C42.5771 16.5281 42.504 16.6068 42.471 16.705C42.4135 16.8754 42.429 17.0544 42.4357 17.2312C42.44 17.3514 42.3759 17.574 42.4202 17.681C42.4843 17.8359 42.7117 17.7684 42.8355 17.7552C43.3699 17.6875 43.6326 18.0827 43.9884 18.3948C44.2446 18.622 44.5979 18.7749 44.9381 18.6394C45.0109 18.6109 45.0772 18.5696 45.139 18.5236C45.3489 18.373 45.5256 18.1591 45.5831 17.9059C45.7354 17.2597 45.0795 16.9322 44.5428 16.8296Z" fill="#CAFFE2" stroke="black" stroke-width="0.2" stroke-linecap="round" stroke-linejoin="round"/>
<path d="M46 18.4328L45.5625 17.4512" stroke="black" stroke-width="0.2" stroke-linecap="round" stroke-linejoin="round"/>
<path d="M45.4692 19.3624C45.137 19.258 44.9609 18.6511 44.9609 18.6511" stroke="black" stroke-width="0.2" stroke-linecap="round" stroke-linejoin="round"/>
<path d="M43.7692 17.8587C43.668 17.543 43.4025 17.3723 43.1562 17.4869" stroke="black" stroke-width="0.2" stroke-linecap="round" stroke-linejoin="round"/>
<path d="M53.8488 43.308C53.8488 45.2684 42.4968 46.8577 28.4931 46.8577C14.4893 46.8577 3.13696 45.2684 3.13696 43.308C3.13696 41.3474 14.4893 39.7581 28.4931 39.7581C42.4968 39.7581 53.8488 41.3474 53.8488 43.308Z" fill="white" fill-opacity="0.1"/>
</svg>
