<svg width="16" height="16" viewBox="0 0 16 16" fill="none" xmlns="http://www.w3.org/2000/svg">
<path d="M14 8V3C14 2.73478 13.8946 2.48043 13.7071 2.29289C13.5196 2.10536 13.2652 2 13 2H3C2.73478 2 2.48043 2.10536 2.29289 2.29289C2.10536 2.48043 2 2.73478 2 3V13C2 13.2652 2.10536 13.5196 2.29289 13.7071C2.48043 13.8946 2.73478 14 3 14H8" stroke="white" stroke-width="1.2" stroke-linecap="round" stroke-linejoin="round"/>
<path d="M10.667 12.667C11.7716 12.667 12.667 11.7716 12.667 10.667C12.667 9.56242 11.7716 8.66699 10.667 8.66699C9.56242 8.66699 8.66699 9.56242 8.66699 10.667C8.66699 11.7716 9.56242 12.667 10.667 12.667Z" stroke="white" stroke-width="1.2"/>
<path d="M12.3337 11.9997L14.0003 13.333M4.66699 5.33301H11.3337M4.66699 7.99967H7.33366" stroke="white" stroke-width="1.2" stroke-linecap="round" stroke-linejoin="round"/>
</svg>
