<svg width="64" height="64" viewBox="0 0 64 64" fill="none" xmlns="http://www.w3.org/2000/svg">
<path fill-rule="evenodd" clip-rule="evenodd" d="M52.9907 23.8504C54.3056 24.8074 53.6298 26.8837 52.0111 26.8837H48.7632V46.4437H52.535C52.7655 46.4437 52.9541 46.6319 52.9541 46.862V49.5816C52.9541 49.8117 52.7655 50 52.535 50H11.4646C11.2341 50 11.0455 49.8117 11.0455 49.5816V46.862C11.0455 46.6319 11.2341 46.4437 11.4646 46.4437H15.2364V26.8837H11.9937C10.3697 26.8837 9.69396 24.8022 11.0088 23.8504L31.0149 9.32164C31.3006 9.11266 31.6456 9 31.9998 9C32.354 9 32.6989 9.11266 32.9846 9.32164L52.9907 23.8504ZM19.0081 26.9585V26.8837H25.1373V26.9585H28.909V26.8837H35.0382V26.9585H38.8099V26.8837H44.9914V46.4437H44.876V46.6114H18.4462V26.9585H19.0081Z" fill="#127445"/>
<path d="M40.7738 34.6955L40.7738 34.6955L40.7674 34.6891L34.3218 28.2463C33.2924 27.2174 31.611 27.2174 30.5816 28.2463L24.136 34.6891L24.136 34.689L24.1296 34.6955C23.6306 35.2128 23.3677 35.8829 23.3677 36.5586C23.3677 37.2344 23.6306 37.9044 24.1296 38.4217L24.1296 38.4218L24.136 38.4282L30.5816 44.871C31.611 45.8999 33.2924 45.8999 34.3218 44.871L40.7674 38.4282C41.2932 37.9026 41.5357 37.2262 41.5357 36.5586C41.5357 35.8829 41.2728 35.2128 40.7738 34.6955Z" fill="#00ED7B" stroke="#2C2C2E"/>
<ellipse cx="31.685" cy="58.0136" rx="22.685" ry="0.986305" fill="#242424"/>
</svg>
