<svg width="64" height="64" viewBox="0 0 64 64" fill="none" xmlns="http://www.w3.org/2000/svg">
<path fill-rule="evenodd" clip-rule="evenodd" d="M22.1193 14.6367H41.8809L52.4885 33.5788L41.8439 49.5458H22.1564L11.5117 33.5788L22.1193 14.6367ZM22.9719 16.0913L13.2158 33.5128L22.9348 48.0913H41.0655L50.7844 33.5128L41.0284 16.0913H22.9719Z" fill="#78A7FF"/>
<path d="M34.2692 40.9096L40.8224 34.3593C41.2541 33.9278 41.4545 33.3729 41.4545 32.8181C41.4545 32.2632 41.2387 31.7084 40.8224 31.2769L34.2692 24.7266C33.4211 23.8789 32.0334 23.8789 31.1854 24.7266L24.6322 31.2769C24.2159 31.7084 24 32.2632 24 32.8181C24 33.3729 24.2159 33.9278 24.6322 34.3593L31.1854 40.9096C32.0334 41.7573 33.4211 41.7573 34.2692 40.9096Z" fill="#00ED7B"/>
<path d="M23.3162 19.4094L26.5928 16.1343C26.8087 15.9185 26.9089 15.6411 26.9089 15.3636C26.9089 15.0862 26.801 14.8088 26.5928 14.593L23.3162 11.3179C22.8922 10.894 22.1983 10.894 21.7743 11.3179L18.4977 14.593C18.2896 14.8088 18.1816 15.0862 18.1816 15.3636C18.1816 15.6411 18.2896 15.9185 18.4977 16.1343L21.7743 19.4094C22.1983 19.8332 22.8922 19.8332 23.3162 19.4094Z" fill="#78A7FF"/>
<path d="M42.2254 19.4094L45.502 16.1343C45.7179 15.9185 45.8181 15.6411 45.8181 15.3636C45.8181 15.0862 45.7102 14.8088 45.502 14.593L42.2254 11.3179C41.8014 10.894 41.1075 10.894 40.6835 11.3179L37.4069 14.593C37.1988 14.8088 37.0908 15.0862 37.0908 15.3636C37.0908 15.6411 37.1988 15.9185 37.4069 16.1343L40.6835 19.4094C41.1075 19.8332 41.8014 19.8332 42.2254 19.4094Z" fill="#78A7FF"/>
<path d="M52.4075 36.8635L55.6841 33.5884C55.9 33.3726 56.0002 33.0952 56.0002 32.8177C56.0002 32.5403 55.8923 32.2629 55.6841 32.0471L52.4075 28.772C51.9835 28.3481 51.2897 28.3481 50.8656 28.772L47.589 32.0471C47.3809 32.2629 47.2729 32.5403 47.2729 32.8177C47.2729 33.0952 47.3809 33.3726 47.589 33.5884L50.8656 36.8635C51.2897 37.2873 51.9835 37.2873 52.4075 36.8635Z" fill="#78A7FF"/>
<path d="M13.1346 36.8635L16.4112 33.5884C16.627 33.3726 16.7273 33.0952 16.7273 32.8177C16.7273 32.5403 16.6193 32.2629 16.4112 32.0471L13.1346 28.772C12.7106 28.3481 12.0167 28.3481 11.5927 28.772L8.31609 32.0471C8.10793 32.2629 8 32.5403 8 32.8177C8 33.0952 8.10793 33.3726 8.31609 33.5884L11.5927 36.8635C12.0167 37.2873 12.7106 37.2873 13.1346 36.8635Z" fill="#78A7FF"/>
<path d="M42.2254 52.8635L45.502 49.5884C45.7179 49.3726 45.8181 49.0952 45.8181 48.8177C45.8181 48.5403 45.7102 48.2629 45.502 48.0471L42.2254 44.772C41.8014 44.3481 41.1075 44.3481 40.6835 44.772L37.4069 48.0471C37.1988 48.2629 37.0908 48.5403 37.0908 48.8177C37.0908 49.0952 37.1988 49.3726 37.4069 49.5884L40.6835 52.8635C41.1075 53.2873 41.8014 53.2873 42.2254 52.8635Z" fill="#78A7FF"/>
<path d="M23.3162 52.8635L26.5928 49.5884C26.8087 49.3726 26.9089 49.0952 26.9089 48.8177C26.9089 48.5403 26.801 48.2629 26.5928 48.0471L23.3162 44.772C22.8922 44.3481 22.1983 44.3481 21.7743 44.772L18.4977 48.0471C18.2896 48.2629 18.1816 48.5403 18.1816 48.8177C18.1816 49.0952 18.2896 49.3726 18.4977 49.5884L21.7743 52.8635C22.1983 53.2873 22.8922 53.2873 23.3162 52.8635Z" fill="#78A7FF"/>
<ellipse cx="34.685" cy="58.0136" rx="22.685" ry="0.986305" fill="#242424"/>
</svg>
