<svg width="14" height="15" viewBox="0 0 14 15" fill="none" xmlns="http://www.w3.org/2000/svg">
<path d="M9.9165 2.24985C10.0697 2.09664 10.2516 1.97511 10.4518 1.89219C10.652 1.80928 10.8665 1.7666 11.0832 1.7666C11.2998 1.7666 11.5144 1.80928 11.7146 1.89219C11.9147 1.97511 12.0966 2.09664 12.2498 2.24985C12.403 2.40306 12.5246 2.58494 12.6075 2.78512C12.6904 2.9853 12.7331 3.19985 12.7331 3.41652C12.7331 3.63319 12.6904 3.84774 12.6075 4.04791C12.5246 4.24809 12.403 4.42998 12.2498 4.58318L4.37484 12.4582L1.1665 13.3332L2.0415 10.1249L9.9165 2.24985Z" stroke="white" stroke-width="1.33333" stroke-linecap="round" stroke-linejoin="round"/>
</svg>
