<svg width="24" height="24" viewBox="0 0 24 24" fill="none" xmlns="http://www.w3.org/2000/svg">
<g clip-path="url(#clip0_13126_2130)">
<circle cx="11.9531" cy="11.9531" r="11.9531" fill="white"/>
<path d="M10.0715 0.109066C7.46601 0.581915 4.67174 2.07612 3.12357 3.85403C1.99076 5.12127 0.952346 6.97483 0.442581 8.62035C-0.180465 10.682 -0.142705 13.5947 0.536982 15.732C1.06563 17.3397 2.06628 19.0419 3.21797 20.3281C4.29414 21.5197 6.522 22.9193 8.27786 23.4867C9.59947 23.9407 10.1281 24.0163 11.9973 23.9974C14.716 23.9974 16.5663 23.4489 18.6808 22.0303C21.022 20.4605 22.6834 18.2097 23.5519 15.4294C24.1939 13.3678 24.1372 10.455 23.4387 8.29881C21.8905 3.53249 17.5669 0.241464 12.5637 0.0144966C11.6763 -0.0233314 10.5624 0.0144966 10.0715 0.109066ZM9.9582 6.14262L11.9784 8.20424L14.0552 6.1237L16.132 4.02426L17.076 4.95104C17.6047 5.46172 18.0389 5.95348 18.0389 6.06696C18.0389 6.16153 16.9816 7.31528 15.6789 8.62035L13.3189 11.0224V13.103V15.1835L12.6581 15.5429C12.0161 15.8833 11.9784 15.8833 11.3365 15.5429L10.6756 15.1835V13.084V10.9846L8.31562 8.62035C7.01289 7.31528 5.9556 6.18045 5.9556 6.06696C5.9556 5.87782 7.65481 4.081 7.84362 4.081C7.90026 4.081 8.86315 5.00778 9.9582 6.14262ZM12.6581 5.14018L13.1678 6.01022L12.5825 6.59655L11.9973 7.2018L11.412 6.59655L10.8267 6.01022L11.3365 5.14018C11.6197 4.66733 11.9217 4.27014 11.9973 4.27014C12.0728 4.27014 12.3749 4.66733 12.6581 5.14018ZM9.88268 12.876C9.84492 13.6704 9.7694 14.3702 9.69388 14.408C9.54283 14.5026 6.97513 13.0462 6.80521 12.8003C6.76745 12.7247 6.99401 12.2518 7.31497 11.7222C7.63593 11.2116 8.03242 10.5874 8.18346 10.3415L8.46666 9.86867L9.18411 10.6631C9.92044 11.4385 9.92044 11.4574 9.88268 12.876ZM16.5285 11.4764C16.925 12.1383 17.2082 12.7436 17.1704 12.8192C17.0005 13.084 14.4139 14.4837 14.244 14.3702C14.1496 14.3134 14.0741 13.6325 14.0741 12.8571C14.0741 11.5142 14.093 11.4385 14.7726 10.7009C15.188 10.2091 15.5279 10.0011 15.6223 10.0956C15.7355 10.2091 16.132 10.8144 16.5285 11.4764ZM9.92044 15.6374C10.9588 16.2427 11.8651 16.7534 11.9784 16.7534C12.0728 16.7534 13.2434 16.1103 14.565 15.3537C15.9055 14.5782 17.0194 13.973 17.0572 13.9919C17.1327 14.0865 12.2049 20.9901 12.035 21.0468C11.9595 21.0846 11.4875 20.4794 10.9588 19.7418C10.4491 19.0041 9.31627 17.4343 8.46666 16.2427C7.59817 15.07 6.89961 14.0676 6.89961 14.0108C6.89961 13.8595 7.73034 14.3134 9.92044 15.6374Z" fill="#5714FA"/>
</g>
<defs>
<clipPath id="clip0_13126_2130">
<rect width="24" height="24" fill="white"/>
</clipPath>
</defs>
</svg>