<svg width="17" height="16" viewBox="0 0 17 16" fill="none" xmlns="http://www.w3.org/2000/svg">
<g clip-path="url(#clip0_6413_60163)">
<rect x="8.66663" width="11.3137" height="11.3137" rx="2" transform="rotate(45 8.66663 0)" fill="#D1ADFF" stroke="black" stroke-width="0.4"/>
<path fill-rule="evenodd" clip-rule="evenodd" d="M5.54944 7.7445L5.5526 7.74302L8.64587 9.55348V9.55357L8.64596 9.55353L8.64604 9.55357V9.55348L11.7393 7.74302L11.7424 7.7445L11.7409 7.74204L11.7424 7.74117L11.7396 7.73989L8.64604 2.57547V2.5752L8.64596 2.57533L8.64587 2.5752V2.57547L5.5522 7.73989L5.54944 7.74117L5.55091 7.74204L5.54944 7.7445ZM8.64596 10.2217L5.54944 8.36523L8.64587 12.8106V12.8108L8.64596 12.8107L8.64604 12.8108V12.8106L11.7424 8.36523L8.64596 10.2217Z" fill="#131313"/>
</g>
<defs>
<clipPath id="clip0_6413_60163">
<rect x="0.666626" width="16" height="16" rx="8" fill="white"/>
</clipPath>
</defs>
</svg>
