<svg width="24" height="24" viewBox="0 0 24 24" fill="none" xmlns="http://www.w3.org/2000/svg">
<path d="M22.1604 13.0687C22.0161 12.9241 21.8351 12.8216 21.6369 12.772C21.4387 12.7225 21.2308 12.7278 21.0354 12.7875C19.6705 13.1995 18.2194 13.2336 16.8367 12.8862C15.454 12.5387 14.1914 11.8226 13.1834 10.8143C12.1755 9.80597 11.4599 8.54311 11.113 7.16024C10.766 5.77737 10.8007 4.32629 11.2132 2.96156C11.2734 2.76609 11.2792 2.55792 11.2299 2.35942C11.1806 2.16092 11.0782 1.97962 10.9335 1.835C10.7889 1.69038 10.6076 1.58792 10.4091 1.53864C10.2106 1.48936 10.0024 1.49512 9.80697 1.55531C7.75422 2.18624 5.9528 3.44864 4.65916 5.16281C3.52788 6.66646 2.838 8.45561 2.66693 10.3295C2.49586 12.2034 2.85037 14.0879 3.69068 15.7715C4.53099 17.4552 5.82385 18.8713 7.42419 19.8611C9.02453 20.8509 10.869 21.3751 12.7507 21.375C14.9476 21.3814 17.086 20.6671 18.8379 19.3416C20.5512 18.0466 21.8123 16.2442 22.4417 14.1909C22.5008 13.9959 22.5059 13.7886 22.4563 13.5909C22.4068 13.3933 22.3045 13.2128 22.1604 13.0687ZM17.4842 17.5444C15.9678 18.6859 14.0901 19.2414 12.1967 19.1086C10.3032 18.9757 8.52152 18.1635 7.17938 16.8213C5.83724 15.4792 5.02501 13.6975 4.89216 11.8041C4.75931 9.91065 5.31478 8.03296 6.45635 6.51656C7.05703 5.72199 7.80148 5.04719 8.65103 4.52718C8.63416 4.76718 8.62572 5.00812 8.62572 5.25C8.6287 7.9344 9.69639 10.508 11.5946 12.4062C13.4927 14.3043 16.0663 15.372 18.7507 15.375C18.9926 15.375 19.2335 15.3666 19.4735 15.3497C18.9538 16.1994 18.2789 16.9439 17.4842 17.5444Z" fill="black"/>
</svg>
