<svg width="24" height="24" viewBox="0 0 24 24" fill="none" xmlns="http://www.w3.org/2000/svg">
<rect width="24" height="24" rx="12" fill="#00ED7B"/>
<path d="M12.904 3.96542L19.9859 11.0537C20.511 11.581 20.511 12.4341 19.9859 12.9614L12.904 20.0497C12.3785 20.5772 11.5247 20.5777 10.998 20.0513C10.9977 20.051 10.9974 20.0507 10.998 20.0497L3.91607 12.9614C3.39093 12.4341 3.39093 11.581 3.91607 11.0537L10.998 3.96542C11.5235 3.43778 12.3772 3.4374 12.904 3.96372C12.9042 3.964 12.9045 3.96428 12.904 3.96542Z" fill="black"/>
<path d="M11.0377 4.00455C11.5319 3.50833 12.3292 3.49873 12.8358 3.97543L12.8356 3.97597L12.8642 4.00461L19.946 11.0928C20.4493 11.5982 20.4493 12.4158 19.946 12.9212L12.8642 20.0094H12.8641C12.3699 20.5057 11.5727 20.5153 11.066 20.0386L11.0663 20.038L11.0377 20.0094L3.95584 12.9212C3.45254 12.4158 3.45255 11.5982 3.95584 11.0928L11.0377 4.00461L11.0377 4.00455ZM11.0377 20.0111C11.0375 20.0109 11.0382 20.0114 11.0392 20.0127C11.0387 20.0122 11.0382 20.0116 11.0377 20.0111ZM12.8626 4.00136C12.8632 4.00189 12.8637 4.00241 12.8642 4.00294C12.8644 4.00311 12.8637 4.00256 12.8626 4.00136Z" fill="#00ED76" stroke="black" stroke-width="0.2"/>
<path fill-rule="evenodd" clip-rule="evenodd" d="M8.10352 12.458L11.9743 14.7787V18.015L8.10352 12.458Z" fill="#78A7FF"/>
<path fill-rule="evenodd" clip-rule="evenodd" d="M15.8448 12.458L11.9741 14.7787V18.015L15.8448 12.458Z" fill="#D1ADFF"/>
<path fill-rule="evenodd" clip-rule="evenodd" d="M8.10352 11.6784L11.9743 13.9439V9.87305L8.10352 11.6784Z" fill="#78A7FF"/>
<path fill-rule="evenodd" clip-rule="evenodd" d="M15.8448 11.6784L11.9741 13.9439V9.87305L15.8448 11.6784Z" fill="#D1ADFF"/>
<path fill-rule="evenodd" clip-rule="evenodd" d="M8.10352 11.6823L11.9743 9.87656V5.2207L8.10352 11.6823Z" fill="#D1ADFF"/>
<path fill-rule="evenodd" clip-rule="evenodd" d="M15.8448 11.6823L11.9741 9.87656V5.2207L15.8448 11.6823Z" fill="#89FEF7"/>
<path d="M15.7201 12.4376C15.7762 12.4038 15.8381 12.4652 15.8115 12.5201L15.8059 12.5297L12.0038 18.0062C11.9806 18.0397 11.9336 18.0427 11.9061 18.0154L11.8985 18.0062L8.09648 12.5297C8.05912 12.4759 8.11581 12.4097 8.17221 12.4326L8.18216 12.4376L11.9511 14.7048L15.7201 12.4376ZM15.5291 12.7026L11.9841 14.8352C11.9672 14.8454 11.9467 14.8472 11.9286 14.8403L11.9181 14.8352L8.37306 12.7026L11.9511 17.8566L15.5291 12.7026ZM11.8961 5.28028C11.919 5.24208 11.9715 5.23889 11.9992 5.27073L12.0062 5.28028L15.8082 11.6312C15.8227 11.6555 15.8194 11.6816 15.8062 11.7007C15.8238 11.7264 15.8209 11.7635 15.7959 11.7854L15.7856 11.793L11.9836 14.0212C11.9669 14.0309 11.9469 14.0326 11.9291 14.0261L11.9188 14.0212L8.11676 11.793C8.08261 11.7729 8.07631 11.7297 8.09615 11.7007C8.0866 11.6869 8.08216 11.6695 8.08598 11.6517L8.08929 11.6409L8.09412 11.6312L11.8961 5.28028ZM11.9511 10.0326L8.28738 11.7437L11.9511 13.8909L15.6147 11.7437L11.9511 10.0326ZM11.9512 5.43842L8.31216 11.5172L11.9241 9.83115C11.9343 9.82638 11.9456 9.82441 11.9567 9.82543L11.9676 9.82733L11.9782 9.83115L15.5901 11.5173L11.9512 5.43842Z" fill="black"/>
</svg>
