<svg width="18" height="18" viewBox="0 0 18 18" fill="none" xmlns="http://www.w3.org/2000/svg">
<rect x="0.513916" y="0.249512" width="17.486" height="17.5011" rx="8.743" fill="#1F2023"/>
<path d="M10.0193 2.56638L15.6849 8.23697C16.1049 8.65884 16.1049 9.3413 15.6849 9.76317L10.0193 15.4338C9.59894 15.8558 8.91594 15.8562 8.49454 15.4351C8.49434 15.4348 8.49407 15.4346 8.49454 15.4338L2.829 9.76317C2.40889 9.3413 2.40889 8.65884 2.829 8.23697L8.49454 2.56638C8.91494 2.14427 9.59787 2.14396 10.0193 2.56502C10.0195 2.56524 10.0197 2.56547 10.0193 2.56638Z" fill="black"/>
<path d="M8.52634 2.59807C8.92167 2.2011 9.55947 2.19342 9.96481 2.57478L9.96461 2.57521L9.98747 2.59812L15.6529 8.2687C16.0556 8.67297 16.0556 9.32704 15.6529 9.73137L9.98747 15.402H9.98741C9.59207 15.799 8.95427 15.8066 8.54894 15.4253L8.54921 15.4248L8.52627 15.402L2.86082 9.73137C2.45818 9.32704 2.45818 8.67297 2.86082 8.2687L8.52627 2.59812L8.52634 2.59807ZM8.52627 15.4033C8.52614 15.4032 8.52668 15.4036 8.52754 15.4046C8.52714 15.4042 8.52674 15.4037 8.52627 15.4033ZM9.98621 2.59552C9.98667 2.59594 9.98707 2.59636 9.98754 2.59678C9.98767 2.59692 9.98714 2.59648 9.98621 2.59552Z" fill="#00ED76" stroke="black" stroke-width="0.2"/>
<path fill-rule="evenodd" clip-rule="evenodd" d="M6.17896 9.36035L9.27556 11.2169V13.806L6.17896 9.36035Z" fill="#78A7FF"/>
<path fill-rule="evenodd" clip-rule="evenodd" d="M12.3719 9.36035L9.27539 11.2169V13.806L12.3719 9.36035Z" fill="#D1ADFF"/>
<path fill-rule="evenodd" clip-rule="evenodd" d="M6.17896 8.73702L9.27556 10.5494V7.29272L6.17896 8.73702Z" fill="#78A7FF"/>
<path fill-rule="evenodd" clip-rule="evenodd" d="M12.3719 8.73702L9.27539 10.5494V7.29272L12.3719 8.73702Z" fill="#D1ADFF"/>
<path fill-rule="evenodd" clip-rule="evenodd" d="M6.17896 8.7401L9.27556 7.29549V3.5708L6.17896 8.7401Z" fill="#D1ADFF"/>
<path fill-rule="evenodd" clip-rule="evenodd" d="M12.3719 8.7401L9.27539 7.29549V3.5708L12.3719 8.7401Z" fill="#89FEF7"/>
<path d="M12.2724 9.34385C12.3172 9.31685 12.3668 9.36592 12.3454 9.40985L12.341 9.41752L9.29929 13.7988C9.28069 13.8256 9.24316 13.828 9.22109 13.8061L9.21503 13.7988L6.17343 9.41752C6.14354 9.37452 6.18889 9.32159 6.23401 9.33985L6.24197 9.34385L9.25709 11.1577L12.2724 9.34385ZM12.1196 9.55585L9.28356 11.262C9.27003 11.2701 9.25363 11.2715 9.23916 11.2661L9.23076 11.262L6.39469 9.55585L9.25709 13.6791L12.1196 9.55585ZM9.21309 3.61802C9.23143 3.58747 9.27343 3.58491 9.29563 3.61038L9.30123 3.61802L12.3428 8.69879C12.3544 8.71819 12.3518 8.73905 12.3412 8.75439C12.3553 8.77492 12.353 8.80459 12.333 8.82212L12.3247 8.82819L9.28309 10.6107C9.26976 10.6185 9.25376 10.6199 9.23956 10.6147L9.23129 10.6107L6.18965 8.82819C6.16233 8.81212 6.15729 8.77759 6.17316 8.75439C6.16552 8.74332 6.16197 8.72939 6.16503 8.71512L6.16767 8.70652L6.17154 8.69879L9.21309 3.61802ZM9.25709 7.41985L6.32615 8.78872L9.25709 10.5065L12.188 8.78872L9.25709 7.41985ZM9.25723 3.74453L6.34597 8.60752L9.23549 7.25872C9.24369 7.2549 9.25276 7.25333 9.26163 7.25414L9.27036 7.25567L9.27883 7.25872L12.1684 8.60765L9.25723 3.74453Z" fill="black"/>
</svg>
