<svg width="24" height="24" viewBox="0 0 24 24" fill="none" xmlns="http://www.w3.org/2000/svg">
<rect width="24" height="24" rx="12" fill="#121212"/>
<path d="M13.5901 20.3444L20.3481 13.5894C20.7933 13.1444 21 12.5722 21 12C21 11.4278 20.7774 10.8556 20.3481 10.4106L13.5901 3.65563C12.7155 2.78146 11.2845 2.78146 10.4099 3.65563L3.65194 10.4106C3.22261 10.8556 3 11.4278 3 12C3 12.5722 3.22261 13.1444 3.65194 13.5894L10.4099 20.3444C11.2845 21.2185 12.7155 21.2185 13.5901 20.3444Z" fill="#00ED7B"/>
<path d="M13.5901 20.3444L20.3481 13.5894C20.7933 13.1444 21 12.5722 21 12C21 11.4278 20.7774 10.8556 20.3481 10.4106L13.5901 3.65563C12.7155 2.78146 11.2845 2.78146 10.4099 3.65563L3.65194 10.4106C3.22261 10.8556 3 11.4278 3 12C3 12.5722 3.22261 13.1444 3.65194 13.5894L10.4099 20.3444C11.2845 21.2185 12.7155 21.2185 13.5901 20.3444Z" stroke="black"/>
<path d="M13.9878 18.4377H7.33936C6.78707 18.4377 6.33936 17.9899 6.33936 17.4377V6.56348C6.33936 6.01119 6.78707 5.56348 7.33936 5.56348H13.3994C16.1821 5.56348 17.5655 6.64427 17.5655 8.80586C17.5655 9.64825 17.2634 10.3476 16.85 10.7449C16.4365 11.1423 16.0072 11.3966 15.7528 11.492L15.6213 11.5425C15.576 11.5599 15.5461 11.6035 15.5461 11.6521C15.5461 11.7071 15.5844 11.754 15.6385 11.764C15.7759 11.7894 15.9844 11.835 16.4683 12.0641C16.7704 12.2231 17.0408 12.3979 17.2634 12.6045C17.486 12.8112 17.7086 13.1131 17.8994 13.5105C18.0902 13.9078 18.1856 14.3688 18.1856 14.8615C18.1538 17.2456 16.8659 18.4377 13.9878 18.4377Z" fill="black"/>
<path d="M14.1149 13.5895L12.4135 11.8729C12.1909 11.6504 11.8252 11.6504 11.6025 11.8729L9.88522 13.5895C9.66261 13.812 9.66261 14.1776 9.88522 14.4001L11.5866 16.1008C11.8093 16.3233 12.175 16.3233 12.3976 16.1008L14.099 14.4001C14.3375 14.1776 14.3375 13.812 14.1149 13.5895Z" fill="white"/>
<path d="M14.1149 9.31384L12.4135 7.61318C12.1909 7.39066 11.8252 7.39066 11.6025 7.61318L9.88522 9.31384C9.66261 9.53636 9.66261 9.90192 9.88522 10.1244L11.5866 11.841C11.8093 12.0635 12.175 12.0635 12.3976 11.841L14.099 10.1403C14.3375 9.90192 14.3375 9.53636 14.1149 9.31384Z" fill="white"/>
</svg>
