<svg width="64" height="64" viewBox="0 0 64 64" fill="none" xmlns="http://www.w3.org/2000/svg">
<path d="M34.8269 54.8344L46.841 42.8256C47.6325 42.0344 48 41.0172 48 40C48 38.9828 47.6042 37.9656 46.841 37.1744L34.8269 25.1656C33.2721 23.6115 30.7279 23.6115 29.1731 25.1656L17.159 37.1744C16.3958 37.9656 16 38.9828 16 40C16 41.0172 16.3958 42.0344 17.159 42.8256L29.1731 54.8344C30.7279 56.3885 33.2721 56.3885 34.8269 54.8344Z" fill="#00ED7B"/>
<path d="M17.4134 31.4172L23.4205 25.4128C23.8163 25.0172 24 24.5086 24 24C24 23.4914 23.8021 22.9828 23.4205 22.5872L17.4134 16.5828C16.636 15.8057 15.364 15.8057 14.5866 16.5828L8.57951 22.5872C8.19788 22.9828 8 23.4914 8 24C8 24.5086 8.19788 25.0172 8.57951 25.4128L14.5866 31.4172C15.364 32.1943 16.636 32.1943 17.4134 31.4172Z" fill="#D1ADFF"/>
<path d="M49.4134 31.4172L55.4205 25.4128C55.8163 25.0172 56 24.5086 56 24C56 23.4914 55.8021 22.9828 55.4205 22.5872L49.4134 16.5828C48.636 15.8057 47.364 15.8057 46.5866 16.5828L40.5795 22.5872C40.1979 22.9828 40 23.4914 40 24C40 24.5086 40.1979 25.0172 40.5795 25.4128L46.5866 31.4172C47.364 32.1943 48.636 32.1943 49.4134 31.4172Z" fill="#D1ADFF"/>
<path d="M32.8247 16.9934L36.3288 13.4908C36.5596 13.26 36.6668 12.9634 36.6668 12.6667C36.6668 12.37 36.5514 12.0733 36.3288 11.8425L32.8247 8.33996C32.3712 7.88668 31.6291 7.88668 31.1757 8.33996L27.6715 11.8425C27.4489 12.0733 27.3335 12.37 27.3335 12.6667C27.3335 12.9634 27.4489 13.26 27.6715 13.4908L31.1757 16.9934C31.6291 17.4467 32.3712 17.4467 32.8247 16.9934Z" fill="#D1ADFF"/>
<ellipse cx="34.685" cy="61.0136" rx="22.685" ry="0.986305" fill="#242424"/>
</svg>
